%TF.GenerationSoftware,KiCad,Pcbnew,8.0.3*%
%TF.CreationDate,2024-07-17T14:54:55-05:00*%
%TF.ProjectId,Encoder,456e636f-6465-4722-9e6b-696361645f70,rev?*%
%TF.SameCoordinates,Original*%
%TF.FileFunction,Legend,Bot*%
%TF.FilePolarity,Positive*%
%FSLAX46Y46*%
G04 Gerber Fmt 4.6, Leading zero omitted, Abs format (unit mm)*
G04 Created by KiCad (PCBNEW 8.0.3) date 2024-07-17 14:54:55*
%MOMM*%
%LPD*%
G01*
G04 APERTURE LIST*
%ADD10C,0.100000*%
%ADD11C,0.062500*%
%ADD12C,0.150000*%
%ADD13C,0.120000*%
%ADD14C,0.152400*%
%ADD15C,0.508000*%
G04 APERTURE END LIST*
D10*
X143866353Y-88645808D02*
X143628258Y-89312475D01*
X143628258Y-89312475D02*
X143390163Y-88645808D01*
X142485401Y-89312475D02*
X143056829Y-89312475D01*
X142771115Y-89312475D02*
X142771115Y-88312475D01*
X142771115Y-88312475D02*
X142866353Y-88455332D01*
X142866353Y-88455332D02*
X142961591Y-88550570D01*
X142961591Y-88550570D02*
X143056829Y-88598189D01*
X142056829Y-89217236D02*
X142009210Y-89264856D01*
X142009210Y-89264856D02*
X142056829Y-89312475D01*
X142056829Y-89312475D02*
X142104448Y-89264856D01*
X142104448Y-89264856D02*
X142056829Y-89217236D01*
X142056829Y-89217236D02*
X142056829Y-89312475D01*
X141390163Y-88312475D02*
X141294925Y-88312475D01*
X141294925Y-88312475D02*
X141199687Y-88360094D01*
X141199687Y-88360094D02*
X141152068Y-88407713D01*
X141152068Y-88407713D02*
X141104449Y-88502951D01*
X141104449Y-88502951D02*
X141056830Y-88693427D01*
X141056830Y-88693427D02*
X141056830Y-88931522D01*
X141056830Y-88931522D02*
X141104449Y-89121998D01*
X141104449Y-89121998D02*
X141152068Y-89217236D01*
X141152068Y-89217236D02*
X141199687Y-89264856D01*
X141199687Y-89264856D02*
X141294925Y-89312475D01*
X141294925Y-89312475D02*
X141390163Y-89312475D01*
X141390163Y-89312475D02*
X141485401Y-89264856D01*
X141485401Y-89264856D02*
X141533020Y-89217236D01*
X141533020Y-89217236D02*
X141580639Y-89121998D01*
X141580639Y-89121998D02*
X141628258Y-88931522D01*
X141628258Y-88931522D02*
X141628258Y-88693427D01*
X141628258Y-88693427D02*
X141580639Y-88502951D01*
X141580639Y-88502951D02*
X141533020Y-88407713D01*
X141533020Y-88407713D02*
X141485401Y-88360094D01*
X141485401Y-88360094D02*
X141390163Y-88312475D01*
X143866353Y-89922419D02*
X143199687Y-89922419D01*
X143199687Y-89922419D02*
X143628258Y-90922419D01*
X142104449Y-89874800D02*
X142961591Y-91160514D01*
X141247306Y-90922419D02*
X141818734Y-90922419D01*
X141533020Y-90922419D02*
X141533020Y-89922419D01*
X141533020Y-89922419D02*
X141628258Y-90065276D01*
X141628258Y-90065276D02*
X141723496Y-90160514D01*
X141723496Y-90160514D02*
X141818734Y-90208133D01*
X140913972Y-89922419D02*
X140247306Y-89922419D01*
X140247306Y-89922419D02*
X140675877Y-90922419D01*
X139152068Y-89874800D02*
X140009210Y-91160514D01*
X138866353Y-90017657D02*
X138818734Y-89970038D01*
X138818734Y-89970038D02*
X138723496Y-89922419D01*
X138723496Y-89922419D02*
X138485401Y-89922419D01*
X138485401Y-89922419D02*
X138390163Y-89970038D01*
X138390163Y-89970038D02*
X138342544Y-90017657D01*
X138342544Y-90017657D02*
X138294925Y-90112895D01*
X138294925Y-90112895D02*
X138294925Y-90208133D01*
X138294925Y-90208133D02*
X138342544Y-90350990D01*
X138342544Y-90350990D02*
X138913972Y-90922419D01*
X138913972Y-90922419D02*
X138294925Y-90922419D01*
X137437782Y-90255752D02*
X137437782Y-90922419D01*
X137675877Y-89874800D02*
X137913972Y-90589085D01*
X137913972Y-90589085D02*
X137294925Y-90589085D01*
D11*
X111832170Y-98072070D02*
X111879789Y-98072070D01*
X111879789Y-98083975D02*
X111832170Y-98083975D01*
X111820265Y-98095879D02*
X111891693Y-98095879D01*
X111879789Y-98107784D02*
X111832170Y-98107784D01*
X111832170Y-98119689D02*
X111879789Y-98119689D01*
X111867884Y-98072070D02*
X111891693Y-98095879D01*
X111891693Y-98095879D02*
X111867884Y-98119689D01*
X111844074Y-98072070D02*
X111820265Y-98095879D01*
X111820265Y-98095879D02*
X111844074Y-98119689D01*
X111832170Y-98072070D02*
X111820265Y-98095879D01*
X111820265Y-98095879D02*
X111832170Y-98119689D01*
X111832170Y-98119689D02*
X111855979Y-98131594D01*
X111855979Y-98131594D02*
X111879789Y-98119689D01*
X111879789Y-98119689D02*
X111891693Y-98095879D01*
X111891693Y-98095879D02*
X111879789Y-98072070D01*
X111879789Y-98072070D02*
X111855979Y-98060165D01*
X111855979Y-98060165D02*
X111832170Y-98072070D01*
X111701217Y-98286356D02*
X111951217Y-98453022D01*
X111701217Y-98453022D02*
X111951217Y-98286356D01*
X112234656Y-98072070D02*
X112282275Y-98072070D01*
X112282275Y-98083975D02*
X112234656Y-98083975D01*
X112222751Y-98095879D02*
X112294179Y-98095879D01*
X112282275Y-98107784D02*
X112234656Y-98107784D01*
X112234656Y-98119689D02*
X112282275Y-98119689D01*
X112270370Y-98072070D02*
X112294179Y-98095879D01*
X112294179Y-98095879D02*
X112270370Y-98119689D01*
X112246560Y-98072070D02*
X112222751Y-98095879D01*
X112222751Y-98095879D02*
X112246560Y-98119689D01*
X112234656Y-98072070D02*
X112222751Y-98095879D01*
X112222751Y-98095879D02*
X112234656Y-98119689D01*
X112234656Y-98119689D02*
X112258465Y-98131594D01*
X112258465Y-98131594D02*
X112282275Y-98119689D01*
X112282275Y-98119689D02*
X112294179Y-98095879D01*
X112294179Y-98095879D02*
X112282275Y-98072070D01*
X112282275Y-98072070D02*
X112258465Y-98060165D01*
X112258465Y-98060165D02*
X112234656Y-98072070D01*
X112115608Y-98441118D02*
X112103703Y-98417308D01*
X112103703Y-98417308D02*
X112103703Y-98381594D01*
X112103703Y-98381594D02*
X112115608Y-98345880D01*
X112115608Y-98345880D02*
X112139418Y-98322070D01*
X112139418Y-98322070D02*
X112163227Y-98310165D01*
X112163227Y-98310165D02*
X112210846Y-98298261D01*
X112210846Y-98298261D02*
X112246560Y-98298261D01*
X112246560Y-98298261D02*
X112294179Y-98310165D01*
X112294179Y-98310165D02*
X112317989Y-98322070D01*
X112317989Y-98322070D02*
X112341799Y-98345880D01*
X112341799Y-98345880D02*
X112353703Y-98381594D01*
X112353703Y-98381594D02*
X112353703Y-98405403D01*
X112353703Y-98405403D02*
X112341799Y-98441118D01*
X112341799Y-98441118D02*
X112329894Y-98453022D01*
X112329894Y-98453022D02*
X112246560Y-98453022D01*
X112246560Y-98453022D02*
X112246560Y-98405403D01*
X112353703Y-98560165D02*
X112103703Y-98560165D01*
X112103703Y-98560165D02*
X112353703Y-98703022D01*
X112353703Y-98703022D02*
X112103703Y-98703022D01*
X112353703Y-98822070D02*
X112103703Y-98822070D01*
X112103703Y-98822070D02*
X112103703Y-98881594D01*
X112103703Y-98881594D02*
X112115608Y-98917308D01*
X112115608Y-98917308D02*
X112139418Y-98941118D01*
X112139418Y-98941118D02*
X112163227Y-98953023D01*
X112163227Y-98953023D02*
X112210846Y-98964927D01*
X112210846Y-98964927D02*
X112246560Y-98964927D01*
X112246560Y-98964927D02*
X112294179Y-98953023D01*
X112294179Y-98953023D02*
X112317989Y-98941118D01*
X112317989Y-98941118D02*
X112341799Y-98917308D01*
X112341799Y-98917308D02*
X112353703Y-98881594D01*
X112353703Y-98881594D02*
X112353703Y-98822070D01*
X112637142Y-98072070D02*
X112684761Y-98072070D01*
X112684761Y-98083975D02*
X112637142Y-98083975D01*
X112625237Y-98095879D02*
X112696665Y-98095879D01*
X112684761Y-98107784D02*
X112637142Y-98107784D01*
X112637142Y-98119689D02*
X112684761Y-98119689D01*
X112672856Y-98072070D02*
X112696665Y-98095879D01*
X112696665Y-98095879D02*
X112672856Y-98119689D01*
X112649046Y-98072070D02*
X112625237Y-98095879D01*
X112625237Y-98095879D02*
X112649046Y-98119689D01*
X112637142Y-98072070D02*
X112625237Y-98095879D01*
X112625237Y-98095879D02*
X112637142Y-98119689D01*
X112637142Y-98119689D02*
X112660951Y-98131594D01*
X112660951Y-98131594D02*
X112684761Y-98119689D01*
X112684761Y-98119689D02*
X112696665Y-98095879D01*
X112696665Y-98095879D02*
X112684761Y-98072070D01*
X112684761Y-98072070D02*
X112660951Y-98060165D01*
X112660951Y-98060165D02*
X112637142Y-98072070D01*
X112732380Y-98453022D02*
X112744285Y-98441118D01*
X112744285Y-98441118D02*
X112756189Y-98405403D01*
X112756189Y-98405403D02*
X112756189Y-98381594D01*
X112756189Y-98381594D02*
X112744285Y-98345880D01*
X112744285Y-98345880D02*
X112720475Y-98322070D01*
X112720475Y-98322070D02*
X112696665Y-98310165D01*
X112696665Y-98310165D02*
X112649046Y-98298261D01*
X112649046Y-98298261D02*
X112613332Y-98298261D01*
X112613332Y-98298261D02*
X112565713Y-98310165D01*
X112565713Y-98310165D02*
X112541904Y-98322070D01*
X112541904Y-98322070D02*
X112518094Y-98345880D01*
X112518094Y-98345880D02*
X112506189Y-98381594D01*
X112506189Y-98381594D02*
X112506189Y-98405403D01*
X112506189Y-98405403D02*
X112518094Y-98441118D01*
X112518094Y-98441118D02*
X112529999Y-98453022D01*
X112744285Y-98548261D02*
X112756189Y-98583975D01*
X112756189Y-98583975D02*
X112756189Y-98643499D01*
X112756189Y-98643499D02*
X112744285Y-98667308D01*
X112744285Y-98667308D02*
X112732380Y-98679213D01*
X112732380Y-98679213D02*
X112708570Y-98691118D01*
X112708570Y-98691118D02*
X112684761Y-98691118D01*
X112684761Y-98691118D02*
X112660951Y-98679213D01*
X112660951Y-98679213D02*
X112649046Y-98667308D01*
X112649046Y-98667308D02*
X112637142Y-98643499D01*
X112637142Y-98643499D02*
X112625237Y-98595880D01*
X112625237Y-98595880D02*
X112613332Y-98572070D01*
X112613332Y-98572070D02*
X112601427Y-98560165D01*
X112601427Y-98560165D02*
X112577618Y-98548261D01*
X112577618Y-98548261D02*
X112553808Y-98548261D01*
X112553808Y-98548261D02*
X112529999Y-98560165D01*
X112529999Y-98560165D02*
X112518094Y-98572070D01*
X112518094Y-98572070D02*
X112506189Y-98595880D01*
X112506189Y-98595880D02*
X112506189Y-98655403D01*
X112506189Y-98655403D02*
X112518094Y-98691118D01*
X112779999Y-98738737D02*
X112779999Y-98929213D01*
X113039628Y-98072070D02*
X113087247Y-98072070D01*
X113087247Y-98083975D02*
X113039628Y-98083975D01*
X113027723Y-98095879D02*
X113099151Y-98095879D01*
X113087247Y-98107784D02*
X113039628Y-98107784D01*
X113039628Y-98119689D02*
X113087247Y-98119689D01*
X113075342Y-98072070D02*
X113099151Y-98095879D01*
X113099151Y-98095879D02*
X113075342Y-98119689D01*
X113051532Y-98072070D02*
X113027723Y-98095879D01*
X113027723Y-98095879D02*
X113051532Y-98119689D01*
X113039628Y-98072070D02*
X113027723Y-98095879D01*
X113027723Y-98095879D02*
X113039628Y-98119689D01*
X113039628Y-98119689D02*
X113063437Y-98131594D01*
X113063437Y-98131594D02*
X113087247Y-98119689D01*
X113087247Y-98119689D02*
X113099151Y-98095879D01*
X113099151Y-98095879D02*
X113087247Y-98072070D01*
X113087247Y-98072070D02*
X113063437Y-98060165D01*
X113063437Y-98060165D02*
X113039628Y-98072070D01*
X113134866Y-98453022D02*
X113146771Y-98441118D01*
X113146771Y-98441118D02*
X113158675Y-98405403D01*
X113158675Y-98405403D02*
X113158675Y-98381594D01*
X113158675Y-98381594D02*
X113146771Y-98345880D01*
X113146771Y-98345880D02*
X113122961Y-98322070D01*
X113122961Y-98322070D02*
X113099151Y-98310165D01*
X113099151Y-98310165D02*
X113051532Y-98298261D01*
X113051532Y-98298261D02*
X113015818Y-98298261D01*
X113015818Y-98298261D02*
X112968199Y-98310165D01*
X112968199Y-98310165D02*
X112944390Y-98322070D01*
X112944390Y-98322070D02*
X112920580Y-98345880D01*
X112920580Y-98345880D02*
X112908675Y-98381594D01*
X112908675Y-98381594D02*
X112908675Y-98405403D01*
X112908675Y-98405403D02*
X112920580Y-98441118D01*
X112920580Y-98441118D02*
X112932485Y-98453022D01*
X113158675Y-98679213D02*
X113158675Y-98560165D01*
X113158675Y-98560165D02*
X112908675Y-98560165D01*
X113158675Y-98762546D02*
X112908675Y-98762546D01*
X113158675Y-98905403D02*
X113015818Y-98798261D01*
X112908675Y-98905403D02*
X113051532Y-98762546D01*
X113442114Y-98072070D02*
X113489733Y-98072070D01*
X113489733Y-98083975D02*
X113442114Y-98083975D01*
X113430209Y-98095879D02*
X113501637Y-98095879D01*
X113489733Y-98107784D02*
X113442114Y-98107784D01*
X113442114Y-98119689D02*
X113489733Y-98119689D01*
X113477828Y-98072070D02*
X113501637Y-98095879D01*
X113501637Y-98095879D02*
X113477828Y-98119689D01*
X113454018Y-98072070D02*
X113430209Y-98095879D01*
X113430209Y-98095879D02*
X113454018Y-98119689D01*
X113442114Y-98072070D02*
X113430209Y-98095879D01*
X113430209Y-98095879D02*
X113442114Y-98119689D01*
X113442114Y-98119689D02*
X113465923Y-98131594D01*
X113465923Y-98131594D02*
X113489733Y-98119689D01*
X113489733Y-98119689D02*
X113501637Y-98095879D01*
X113501637Y-98095879D02*
X113489733Y-98072070D01*
X113489733Y-98072070D02*
X113465923Y-98060165D01*
X113465923Y-98060165D02*
X113442114Y-98072070D01*
X113561161Y-98310165D02*
X113311161Y-98310165D01*
X113311161Y-98310165D02*
X113489733Y-98393499D01*
X113489733Y-98393499D02*
X113311161Y-98476832D01*
X113311161Y-98476832D02*
X113561161Y-98476832D01*
X113561161Y-98595879D02*
X113311161Y-98595879D01*
X113549257Y-98703023D02*
X113561161Y-98738737D01*
X113561161Y-98738737D02*
X113561161Y-98798261D01*
X113561161Y-98798261D02*
X113549257Y-98822070D01*
X113549257Y-98822070D02*
X113537352Y-98833975D01*
X113537352Y-98833975D02*
X113513542Y-98845880D01*
X113513542Y-98845880D02*
X113489733Y-98845880D01*
X113489733Y-98845880D02*
X113465923Y-98833975D01*
X113465923Y-98833975D02*
X113454018Y-98822070D01*
X113454018Y-98822070D02*
X113442114Y-98798261D01*
X113442114Y-98798261D02*
X113430209Y-98750642D01*
X113430209Y-98750642D02*
X113418304Y-98726832D01*
X113418304Y-98726832D02*
X113406399Y-98714927D01*
X113406399Y-98714927D02*
X113382590Y-98703023D01*
X113382590Y-98703023D02*
X113358780Y-98703023D01*
X113358780Y-98703023D02*
X113334971Y-98714927D01*
X113334971Y-98714927D02*
X113323066Y-98726832D01*
X113323066Y-98726832D02*
X113311161Y-98750642D01*
X113311161Y-98750642D02*
X113311161Y-98810165D01*
X113311161Y-98810165D02*
X113323066Y-98845880D01*
X113311161Y-99000641D02*
X113311161Y-99048260D01*
X113311161Y-99048260D02*
X113323066Y-99072070D01*
X113323066Y-99072070D02*
X113346876Y-99095879D01*
X113346876Y-99095879D02*
X113394495Y-99107784D01*
X113394495Y-99107784D02*
X113477828Y-99107784D01*
X113477828Y-99107784D02*
X113525447Y-99095879D01*
X113525447Y-99095879D02*
X113549257Y-99072070D01*
X113549257Y-99072070D02*
X113561161Y-99048260D01*
X113561161Y-99048260D02*
X113561161Y-99000641D01*
X113561161Y-99000641D02*
X113549257Y-98976832D01*
X113549257Y-98976832D02*
X113525447Y-98953022D01*
X113525447Y-98953022D02*
X113477828Y-98941118D01*
X113477828Y-98941118D02*
X113394495Y-98941118D01*
X113394495Y-98941118D02*
X113346876Y-98953022D01*
X113346876Y-98953022D02*
X113323066Y-98976832D01*
X113323066Y-98976832D02*
X113311161Y-99000641D01*
X113844600Y-98072070D02*
X113892219Y-98072070D01*
X113892219Y-98083975D02*
X113844600Y-98083975D01*
X113832695Y-98095879D02*
X113904123Y-98095879D01*
X113892219Y-98107784D02*
X113844600Y-98107784D01*
X113844600Y-98119689D02*
X113892219Y-98119689D01*
X113880314Y-98072070D02*
X113904123Y-98095879D01*
X113904123Y-98095879D02*
X113880314Y-98119689D01*
X113856504Y-98072070D02*
X113832695Y-98095879D01*
X113832695Y-98095879D02*
X113856504Y-98119689D01*
X113844600Y-98072070D02*
X113832695Y-98095879D01*
X113832695Y-98095879D02*
X113844600Y-98119689D01*
X113844600Y-98119689D02*
X113868409Y-98131594D01*
X113868409Y-98131594D02*
X113892219Y-98119689D01*
X113892219Y-98119689D02*
X113904123Y-98095879D01*
X113904123Y-98095879D02*
X113892219Y-98072070D01*
X113892219Y-98072070D02*
X113868409Y-98060165D01*
X113868409Y-98060165D02*
X113844600Y-98072070D01*
X113963647Y-98310165D02*
X113713647Y-98310165D01*
X113713647Y-98310165D02*
X113892219Y-98393499D01*
X113892219Y-98393499D02*
X113713647Y-98476832D01*
X113713647Y-98476832D02*
X113963647Y-98476832D01*
X113713647Y-98643498D02*
X113713647Y-98691117D01*
X113713647Y-98691117D02*
X113725552Y-98714927D01*
X113725552Y-98714927D02*
X113749362Y-98738736D01*
X113749362Y-98738736D02*
X113796981Y-98750641D01*
X113796981Y-98750641D02*
X113880314Y-98750641D01*
X113880314Y-98750641D02*
X113927933Y-98738736D01*
X113927933Y-98738736D02*
X113951743Y-98714927D01*
X113951743Y-98714927D02*
X113963647Y-98691117D01*
X113963647Y-98691117D02*
X113963647Y-98643498D01*
X113963647Y-98643498D02*
X113951743Y-98619689D01*
X113951743Y-98619689D02*
X113927933Y-98595879D01*
X113927933Y-98595879D02*
X113880314Y-98583975D01*
X113880314Y-98583975D02*
X113796981Y-98583975D01*
X113796981Y-98583975D02*
X113749362Y-98595879D01*
X113749362Y-98595879D02*
X113725552Y-98619689D01*
X113725552Y-98619689D02*
X113713647Y-98643498D01*
X113951743Y-98845880D02*
X113963647Y-98881594D01*
X113963647Y-98881594D02*
X113963647Y-98941118D01*
X113963647Y-98941118D02*
X113951743Y-98964927D01*
X113951743Y-98964927D02*
X113939838Y-98976832D01*
X113939838Y-98976832D02*
X113916028Y-98988737D01*
X113916028Y-98988737D02*
X113892219Y-98988737D01*
X113892219Y-98988737D02*
X113868409Y-98976832D01*
X113868409Y-98976832D02*
X113856504Y-98964927D01*
X113856504Y-98964927D02*
X113844600Y-98941118D01*
X113844600Y-98941118D02*
X113832695Y-98893499D01*
X113832695Y-98893499D02*
X113820790Y-98869689D01*
X113820790Y-98869689D02*
X113808885Y-98857784D01*
X113808885Y-98857784D02*
X113785076Y-98845880D01*
X113785076Y-98845880D02*
X113761266Y-98845880D01*
X113761266Y-98845880D02*
X113737457Y-98857784D01*
X113737457Y-98857784D02*
X113725552Y-98869689D01*
X113725552Y-98869689D02*
X113713647Y-98893499D01*
X113713647Y-98893499D02*
X113713647Y-98953022D01*
X113713647Y-98953022D02*
X113725552Y-98988737D01*
X113963647Y-99095879D02*
X113713647Y-99095879D01*
X114247086Y-98072070D02*
X114294705Y-98072070D01*
X114294705Y-98083975D02*
X114247086Y-98083975D01*
X114235181Y-98095879D02*
X114306609Y-98095879D01*
X114294705Y-98107784D02*
X114247086Y-98107784D01*
X114247086Y-98119689D02*
X114294705Y-98119689D01*
X114282800Y-98072070D02*
X114306609Y-98095879D01*
X114306609Y-98095879D02*
X114282800Y-98119689D01*
X114258990Y-98072070D02*
X114235181Y-98095879D01*
X114235181Y-98095879D02*
X114258990Y-98119689D01*
X114247086Y-98072070D02*
X114235181Y-98095879D01*
X114235181Y-98095879D02*
X114247086Y-98119689D01*
X114247086Y-98119689D02*
X114270895Y-98131594D01*
X114270895Y-98131594D02*
X114294705Y-98119689D01*
X114294705Y-98119689D02*
X114306609Y-98095879D01*
X114306609Y-98095879D02*
X114294705Y-98072070D01*
X114294705Y-98072070D02*
X114270895Y-98060165D01*
X114270895Y-98060165D02*
X114247086Y-98072070D01*
X114294705Y-98298261D02*
X114294705Y-98417308D01*
X114366133Y-98274451D02*
X114116133Y-98357784D01*
X114116133Y-98357784D02*
X114366133Y-98441118D01*
X114649572Y-98072070D02*
X114697191Y-98072070D01*
X114697191Y-98083975D02*
X114649572Y-98083975D01*
X114637667Y-98095879D02*
X114709095Y-98095879D01*
X114697191Y-98107784D02*
X114649572Y-98107784D01*
X114649572Y-98119689D02*
X114697191Y-98119689D01*
X114685286Y-98072070D02*
X114709095Y-98095879D01*
X114709095Y-98095879D02*
X114685286Y-98119689D01*
X114661476Y-98072070D02*
X114637667Y-98095879D01*
X114637667Y-98095879D02*
X114661476Y-98119689D01*
X114649572Y-98072070D02*
X114637667Y-98095879D01*
X114637667Y-98095879D02*
X114649572Y-98119689D01*
X114649572Y-98119689D02*
X114673381Y-98131594D01*
X114673381Y-98131594D02*
X114697191Y-98119689D01*
X114697191Y-98119689D02*
X114709095Y-98095879D01*
X114709095Y-98095879D02*
X114697191Y-98072070D01*
X114697191Y-98072070D02*
X114673381Y-98060165D01*
X114673381Y-98060165D02*
X114649572Y-98072070D01*
X114637667Y-98393499D02*
X114649572Y-98429213D01*
X114649572Y-98429213D02*
X114661476Y-98441118D01*
X114661476Y-98441118D02*
X114685286Y-98453022D01*
X114685286Y-98453022D02*
X114721000Y-98453022D01*
X114721000Y-98453022D02*
X114744810Y-98441118D01*
X114744810Y-98441118D02*
X114756715Y-98429213D01*
X114756715Y-98429213D02*
X114768619Y-98405403D01*
X114768619Y-98405403D02*
X114768619Y-98310165D01*
X114768619Y-98310165D02*
X114518619Y-98310165D01*
X114518619Y-98310165D02*
X114518619Y-98393499D01*
X114518619Y-98393499D02*
X114530524Y-98417308D01*
X114530524Y-98417308D02*
X114542429Y-98429213D01*
X114542429Y-98429213D02*
X114566238Y-98441118D01*
X114566238Y-98441118D02*
X114590048Y-98441118D01*
X114590048Y-98441118D02*
X114613857Y-98429213D01*
X114613857Y-98429213D02*
X114625762Y-98417308D01*
X114625762Y-98417308D02*
X114637667Y-98393499D01*
X114637667Y-98393499D02*
X114637667Y-98310165D01*
X115052058Y-98072070D02*
X115099677Y-98072070D01*
X115099677Y-98083975D02*
X115052058Y-98083975D01*
X115040153Y-98095879D02*
X115111581Y-98095879D01*
X115099677Y-98107784D02*
X115052058Y-98107784D01*
X115052058Y-98119689D02*
X115099677Y-98119689D01*
X115087772Y-98072070D02*
X115111581Y-98095879D01*
X115111581Y-98095879D02*
X115087772Y-98119689D01*
X115063962Y-98072070D02*
X115040153Y-98095879D01*
X115040153Y-98095879D02*
X115063962Y-98119689D01*
X115052058Y-98072070D02*
X115040153Y-98095879D01*
X115040153Y-98095879D02*
X115052058Y-98119689D01*
X115052058Y-98119689D02*
X115075867Y-98131594D01*
X115075867Y-98131594D02*
X115099677Y-98119689D01*
X115099677Y-98119689D02*
X115111581Y-98095879D01*
X115111581Y-98095879D02*
X115099677Y-98072070D01*
X115099677Y-98072070D02*
X115075867Y-98060165D01*
X115075867Y-98060165D02*
X115052058Y-98072070D01*
X115171105Y-98310165D02*
X114921105Y-98310165D01*
X115454544Y-98072070D02*
X115502163Y-98072070D01*
X115502163Y-98083975D02*
X115454544Y-98083975D01*
X115442639Y-98095879D02*
X115514067Y-98095879D01*
X115502163Y-98107784D02*
X115454544Y-98107784D01*
X115454544Y-98119689D02*
X115502163Y-98119689D01*
X115490258Y-98072070D02*
X115514067Y-98095879D01*
X115514067Y-98095879D02*
X115490258Y-98119689D01*
X115466448Y-98072070D02*
X115442639Y-98095879D01*
X115442639Y-98095879D02*
X115466448Y-98119689D01*
X115454544Y-98072070D02*
X115442639Y-98095879D01*
X115442639Y-98095879D02*
X115454544Y-98119689D01*
X115454544Y-98119689D02*
X115478353Y-98131594D01*
X115478353Y-98131594D02*
X115502163Y-98119689D01*
X115502163Y-98119689D02*
X115514067Y-98095879D01*
X115514067Y-98095879D02*
X115502163Y-98072070D01*
X115502163Y-98072070D02*
X115478353Y-98060165D01*
X115478353Y-98060165D02*
X115454544Y-98072070D01*
X115323591Y-98286356D02*
X115323591Y-98441118D01*
X115323591Y-98441118D02*
X115418829Y-98357784D01*
X115418829Y-98357784D02*
X115418829Y-98393499D01*
X115418829Y-98393499D02*
X115430734Y-98417308D01*
X115430734Y-98417308D02*
X115442639Y-98429213D01*
X115442639Y-98429213D02*
X115466448Y-98441118D01*
X115466448Y-98441118D02*
X115525972Y-98441118D01*
X115525972Y-98441118D02*
X115549782Y-98429213D01*
X115549782Y-98429213D02*
X115561687Y-98417308D01*
X115561687Y-98417308D02*
X115573591Y-98393499D01*
X115573591Y-98393499D02*
X115573591Y-98322070D01*
X115573591Y-98322070D02*
X115561687Y-98298261D01*
X115561687Y-98298261D02*
X115549782Y-98286356D01*
X115549782Y-98548260D02*
X115561687Y-98560165D01*
X115561687Y-98560165D02*
X115573591Y-98548260D01*
X115573591Y-98548260D02*
X115561687Y-98536356D01*
X115561687Y-98536356D02*
X115549782Y-98548260D01*
X115549782Y-98548260D02*
X115573591Y-98548260D01*
X115323591Y-98643499D02*
X115323591Y-98798261D01*
X115323591Y-98798261D02*
X115418829Y-98714927D01*
X115418829Y-98714927D02*
X115418829Y-98750642D01*
X115418829Y-98750642D02*
X115430734Y-98774451D01*
X115430734Y-98774451D02*
X115442639Y-98786356D01*
X115442639Y-98786356D02*
X115466448Y-98798261D01*
X115466448Y-98798261D02*
X115525972Y-98798261D01*
X115525972Y-98798261D02*
X115549782Y-98786356D01*
X115549782Y-98786356D02*
X115561687Y-98774451D01*
X115561687Y-98774451D02*
X115573591Y-98750642D01*
X115573591Y-98750642D02*
X115573591Y-98679213D01*
X115573591Y-98679213D02*
X115561687Y-98655404D01*
X115561687Y-98655404D02*
X115549782Y-98643499D01*
X115323591Y-98869689D02*
X115573591Y-98953022D01*
X115573591Y-98953022D02*
X115323591Y-99036356D01*
D10*
X116650000Y-99000000D02*
G75*
G02*
X116350000Y-99000000I-150000J0D01*
G01*
X116350000Y-99000000D02*
G75*
G02*
X116650000Y-99000000I150000J0D01*
G01*
X110986000Y-97497500D02*
X116200000Y-97497500D01*
X116200000Y-99200000D01*
X110986000Y-99200000D01*
X110986000Y-97497500D01*
D12*
X127916665Y-99859580D02*
X127964284Y-99907200D01*
X127964284Y-99907200D02*
X128107141Y-99954819D01*
X128107141Y-99954819D02*
X128202379Y-99954819D01*
X128202379Y-99954819D02*
X128345236Y-99907200D01*
X128345236Y-99907200D02*
X128440474Y-99811961D01*
X128440474Y-99811961D02*
X128488093Y-99716723D01*
X128488093Y-99716723D02*
X128535712Y-99526247D01*
X128535712Y-99526247D02*
X128535712Y-99383390D01*
X128535712Y-99383390D02*
X128488093Y-99192914D01*
X128488093Y-99192914D02*
X128440474Y-99097676D01*
X128440474Y-99097676D02*
X128345236Y-99002438D01*
X128345236Y-99002438D02*
X128202379Y-98954819D01*
X128202379Y-98954819D02*
X128107141Y-98954819D01*
X128107141Y-98954819D02*
X127964284Y-99002438D01*
X127964284Y-99002438D02*
X127916665Y-99050057D01*
X127535712Y-99050057D02*
X127488093Y-99002438D01*
X127488093Y-99002438D02*
X127392855Y-98954819D01*
X127392855Y-98954819D02*
X127154760Y-98954819D01*
X127154760Y-98954819D02*
X127059522Y-99002438D01*
X127059522Y-99002438D02*
X127011903Y-99050057D01*
X127011903Y-99050057D02*
X126964284Y-99145295D01*
X126964284Y-99145295D02*
X126964284Y-99240533D01*
X126964284Y-99240533D02*
X127011903Y-99383390D01*
X127011903Y-99383390D02*
X127583331Y-99954819D01*
X127583331Y-99954819D02*
X126964284Y-99954819D01*
D13*
%TO.C,C2*%
X125211252Y-100235000D02*
X124688748Y-100235000D01*
X125211252Y-98765000D02*
X124688748Y-98765000D01*
D14*
%TO.C,J1*%
X113213500Y-103015440D02*
X113213500Y-104422600D01*
X113213500Y-104422600D02*
X114362459Y-104422600D01*
X124361560Y-101273000D02*
X114638440Y-101273000D01*
X124637541Y-104422600D02*
X125786500Y-104422600D01*
X125786500Y-104422600D02*
X125786500Y-103015440D01*
D15*
X126921001Y-104295600D02*
G75*
G02*
X126354612Y-104628456I-381001J0D01*
G01*
X126356243Y-103961843D02*
G75*
G02*
X126920999Y-104295600I183757J-333757D01*
G01*
%TD*%
M02*
