%TF.GenerationSoftware,KiCad,Pcbnew,8.0.3*%
%TF.CreationDate,2024-07-17T14:54:55-05:00*%
%TF.ProjectId,Encoder,456e636f-6465-4722-9e6b-696361645f70,rev?*%
%TF.SameCoordinates,Original*%
%TF.FileFunction,Legend,Top*%
%TF.FilePolarity,Positive*%
%FSLAX46Y46*%
G04 Gerber Fmt 4.6, Leading zero omitted, Abs format (unit mm)*
G04 Created by KiCad (PCBNEW 8.0.3) date 2024-07-17 14:54:55*
%MOMM*%
%LPD*%
G01*
G04 APERTURE LIST*
%ADD10C,0.150000*%
%ADD11C,0.120000*%
%ADD12C,0.152400*%
%ADD13C,0.000000*%
%ADD14C,0.508000*%
G04 APERTURE END LIST*
D10*
X137433333Y-79359580D02*
X137385714Y-79407200D01*
X137385714Y-79407200D02*
X137242857Y-79454819D01*
X137242857Y-79454819D02*
X137147619Y-79454819D01*
X137147619Y-79454819D02*
X137004762Y-79407200D01*
X137004762Y-79407200D02*
X136909524Y-79311961D01*
X136909524Y-79311961D02*
X136861905Y-79216723D01*
X136861905Y-79216723D02*
X136814286Y-79026247D01*
X136814286Y-79026247D02*
X136814286Y-78883390D01*
X136814286Y-78883390D02*
X136861905Y-78692914D01*
X136861905Y-78692914D02*
X136909524Y-78597676D01*
X136909524Y-78597676D02*
X137004762Y-78502438D01*
X137004762Y-78502438D02*
X137147619Y-78454819D01*
X137147619Y-78454819D02*
X137242857Y-78454819D01*
X137242857Y-78454819D02*
X137385714Y-78502438D01*
X137385714Y-78502438D02*
X137433333Y-78550057D01*
X138385714Y-79454819D02*
X137814286Y-79454819D01*
X138100000Y-79454819D02*
X138100000Y-78454819D01*
X138100000Y-78454819D02*
X138004762Y-78597676D01*
X138004762Y-78597676D02*
X137909524Y-78692914D01*
X137909524Y-78692914D02*
X137814286Y-78740533D01*
X131338095Y-78354819D02*
X131338095Y-79164342D01*
X131338095Y-79164342D02*
X131385714Y-79259580D01*
X131385714Y-79259580D02*
X131433333Y-79307200D01*
X131433333Y-79307200D02*
X131528571Y-79354819D01*
X131528571Y-79354819D02*
X131719047Y-79354819D01*
X131719047Y-79354819D02*
X131814285Y-79307200D01*
X131814285Y-79307200D02*
X131861904Y-79259580D01*
X131861904Y-79259580D02*
X131909523Y-79164342D01*
X131909523Y-79164342D02*
X131909523Y-78354819D01*
X132909523Y-79354819D02*
X132338095Y-79354819D01*
X132623809Y-79354819D02*
X132623809Y-78354819D01*
X132623809Y-78354819D02*
X132528571Y-78497676D01*
X132528571Y-78497676D02*
X132433333Y-78592914D01*
X132433333Y-78592914D02*
X132338095Y-78640533D01*
X128900000Y-79154819D02*
X128900000Y-79392914D01*
X128661905Y-79297676D02*
X128900000Y-79392914D01*
X128900000Y-79392914D02*
X129138095Y-79297676D01*
X128757143Y-79583390D02*
X128900000Y-79392914D01*
X128900000Y-79392914D02*
X129042857Y-79583390D01*
D11*
%TO.C,C1*%
X136765000Y-81761252D02*
X136765000Y-81238748D01*
X138235000Y-81761252D02*
X138235000Y-81238748D01*
D12*
%TO.C,U1*%
X129625100Y-85179700D02*
X134374900Y-85179700D01*
X134374900Y-79820300D02*
X129625100Y-79820300D01*
D13*
G36*
X136064000Y-83340499D02*
G01*
X135810000Y-83340499D01*
X135810000Y-82959499D01*
X136064000Y-82959499D01*
X136064000Y-83340499D01*
G37*
D14*
%TO.C,J1*%
X126921001Y-104295600D02*
G75*
G02*
X126159001Y-104295600I-381000J0D01*
G01*
X126159001Y-104295600D02*
G75*
G02*
X126921001Y-104295600I381000J0D01*
G01*
%TD*%
M02*
