%TF.GenerationSoftware,KiCad,Pcbnew,8.0.3*%
%TF.CreationDate,2024-06-13T12:42:30-05:00*%
%TF.ProjectId,STM32BluePill,53544d33-3242-46c7-9565-50696c6c2e6b,rev?*%
%TF.SameCoordinates,Original*%
%TF.FileFunction,Legend,Top*%
%TF.FilePolarity,Positive*%
%FSLAX46Y46*%
G04 Gerber Fmt 4.6, Leading zero omitted, Abs format (unit mm)*
G04 Created by KiCad (PCBNEW 8.0.3) date 2024-06-13 12:42:30*
%MOMM*%
%LPD*%
G01*
G04 APERTURE LIST*
%ADD10C,0.200000*%
%ADD11C,0.150000*%
%ADD12C,0.000000*%
%ADD13C,0.120000*%
G04 APERTURE END LIST*
D10*
X78869673Y-72885600D02*
X79631578Y-72885600D01*
X76619673Y-43385600D02*
X77381578Y-43385600D01*
X63869673Y-43385600D02*
X64631578Y-43385600D01*
D11*
X93586779Y-48869819D02*
X93586779Y-49679342D01*
X93586779Y-49679342D02*
X93634398Y-49774580D01*
X93634398Y-49774580D02*
X93682017Y-49822200D01*
X93682017Y-49822200D02*
X93777255Y-49869819D01*
X93777255Y-49869819D02*
X93967731Y-49869819D01*
X93967731Y-49869819D02*
X94062969Y-49822200D01*
X94062969Y-49822200D02*
X94110588Y-49774580D01*
X94110588Y-49774580D02*
X94158207Y-49679342D01*
X94158207Y-49679342D02*
X94158207Y-48869819D01*
X94586779Y-49822200D02*
X94729636Y-49869819D01*
X94729636Y-49869819D02*
X94967731Y-49869819D01*
X94967731Y-49869819D02*
X95062969Y-49822200D01*
X95062969Y-49822200D02*
X95110588Y-49774580D01*
X95110588Y-49774580D02*
X95158207Y-49679342D01*
X95158207Y-49679342D02*
X95158207Y-49584104D01*
X95158207Y-49584104D02*
X95110588Y-49488866D01*
X95110588Y-49488866D02*
X95062969Y-49441247D01*
X95062969Y-49441247D02*
X94967731Y-49393628D01*
X94967731Y-49393628D02*
X94777255Y-49346009D01*
X94777255Y-49346009D02*
X94682017Y-49298390D01*
X94682017Y-49298390D02*
X94634398Y-49250771D01*
X94634398Y-49250771D02*
X94586779Y-49155533D01*
X94586779Y-49155533D02*
X94586779Y-49060295D01*
X94586779Y-49060295D02*
X94634398Y-48965057D01*
X94634398Y-48965057D02*
X94682017Y-48917438D01*
X94682017Y-48917438D02*
X94777255Y-48869819D01*
X94777255Y-48869819D02*
X95015350Y-48869819D01*
X95015350Y-48869819D02*
X95158207Y-48917438D01*
X95920112Y-49346009D02*
X96062969Y-49393628D01*
X96062969Y-49393628D02*
X96110588Y-49441247D01*
X96110588Y-49441247D02*
X96158207Y-49536485D01*
X96158207Y-49536485D02*
X96158207Y-49679342D01*
X96158207Y-49679342D02*
X96110588Y-49774580D01*
X96110588Y-49774580D02*
X96062969Y-49822200D01*
X96062969Y-49822200D02*
X95967731Y-49869819D01*
X95967731Y-49869819D02*
X95586779Y-49869819D01*
X95586779Y-49869819D02*
X95586779Y-48869819D01*
X95586779Y-48869819D02*
X95920112Y-48869819D01*
X95920112Y-48869819D02*
X96015350Y-48917438D01*
X96015350Y-48917438D02*
X96062969Y-48965057D01*
X96062969Y-48965057D02*
X96110588Y-49060295D01*
X96110588Y-49060295D02*
X96110588Y-49155533D01*
X96110588Y-49155533D02*
X96062969Y-49250771D01*
X96062969Y-49250771D02*
X96015350Y-49298390D01*
X96015350Y-49298390D02*
X95920112Y-49346009D01*
X95920112Y-49346009D02*
X95586779Y-49346009D01*
X63110588Y-53119819D02*
X62539160Y-53119819D01*
X62824874Y-53119819D02*
X62824874Y-52119819D01*
X62824874Y-52119819D02*
X62729636Y-52262676D01*
X62729636Y-52262676D02*
X62634398Y-52357914D01*
X62634398Y-52357914D02*
X62539160Y-52405533D01*
D10*
X58203006Y-55464171D02*
X58345863Y-55521314D01*
X58345863Y-55521314D02*
X58393482Y-55578457D01*
X58393482Y-55578457D02*
X58441101Y-55692742D01*
X58441101Y-55692742D02*
X58441101Y-55864171D01*
X58441101Y-55864171D02*
X58393482Y-55978457D01*
X58393482Y-55978457D02*
X58345863Y-56035600D01*
X58345863Y-56035600D02*
X58250625Y-56092742D01*
X58250625Y-56092742D02*
X57869673Y-56092742D01*
X57869673Y-56092742D02*
X57869673Y-54892742D01*
X57869673Y-54892742D02*
X58203006Y-54892742D01*
X58203006Y-54892742D02*
X58298244Y-54949885D01*
X58298244Y-54949885D02*
X58345863Y-55007028D01*
X58345863Y-55007028D02*
X58393482Y-55121314D01*
X58393482Y-55121314D02*
X58393482Y-55235600D01*
X58393482Y-55235600D02*
X58345863Y-55349885D01*
X58345863Y-55349885D02*
X58298244Y-55407028D01*
X58298244Y-55407028D02*
X58203006Y-55464171D01*
X58203006Y-55464171D02*
X57869673Y-55464171D01*
X59060149Y-54892742D02*
X59250625Y-54892742D01*
X59250625Y-54892742D02*
X59345863Y-54949885D01*
X59345863Y-54949885D02*
X59441101Y-55064171D01*
X59441101Y-55064171D02*
X59488720Y-55292742D01*
X59488720Y-55292742D02*
X59488720Y-55692742D01*
X59488720Y-55692742D02*
X59441101Y-55921314D01*
X59441101Y-55921314D02*
X59345863Y-56035600D01*
X59345863Y-56035600D02*
X59250625Y-56092742D01*
X59250625Y-56092742D02*
X59060149Y-56092742D01*
X59060149Y-56092742D02*
X58964911Y-56035600D01*
X58964911Y-56035600D02*
X58869673Y-55921314D01*
X58869673Y-55921314D02*
X58822054Y-55692742D01*
X58822054Y-55692742D02*
X58822054Y-55292742D01*
X58822054Y-55292742D02*
X58869673Y-55064171D01*
X58869673Y-55064171D02*
X58964911Y-54949885D01*
X58964911Y-54949885D02*
X59060149Y-54892742D01*
X60107768Y-54892742D02*
X60298244Y-54892742D01*
X60298244Y-54892742D02*
X60393482Y-54949885D01*
X60393482Y-54949885D02*
X60488720Y-55064171D01*
X60488720Y-55064171D02*
X60536339Y-55292742D01*
X60536339Y-55292742D02*
X60536339Y-55692742D01*
X60536339Y-55692742D02*
X60488720Y-55921314D01*
X60488720Y-55921314D02*
X60393482Y-56035600D01*
X60393482Y-56035600D02*
X60298244Y-56092742D01*
X60298244Y-56092742D02*
X60107768Y-56092742D01*
X60107768Y-56092742D02*
X60012530Y-56035600D01*
X60012530Y-56035600D02*
X59917292Y-55921314D01*
X59917292Y-55921314D02*
X59869673Y-55692742D01*
X59869673Y-55692742D02*
X59869673Y-55292742D01*
X59869673Y-55292742D02*
X59917292Y-55064171D01*
X59917292Y-55064171D02*
X60012530Y-54949885D01*
X60012530Y-54949885D02*
X60107768Y-54892742D01*
X60822054Y-54892742D02*
X61393482Y-54892742D01*
X61107768Y-56092742D02*
X61107768Y-54892742D01*
X65119673Y-73092742D02*
X65119673Y-71892742D01*
X65548244Y-72007028D02*
X65595863Y-71949885D01*
X65595863Y-71949885D02*
X65691101Y-71892742D01*
X65691101Y-71892742D02*
X65929196Y-71892742D01*
X65929196Y-71892742D02*
X66024434Y-71949885D01*
X66024434Y-71949885D02*
X66072053Y-72007028D01*
X66072053Y-72007028D02*
X66119672Y-72121314D01*
X66119672Y-72121314D02*
X66119672Y-72235600D01*
X66119672Y-72235600D02*
X66072053Y-72407028D01*
X66072053Y-72407028D02*
X65500625Y-73092742D01*
X65500625Y-73092742D02*
X66119672Y-73092742D01*
X67119672Y-72978457D02*
X67072053Y-73035600D01*
X67072053Y-73035600D02*
X66929196Y-73092742D01*
X66929196Y-73092742D02*
X66833958Y-73092742D01*
X66833958Y-73092742D02*
X66691101Y-73035600D01*
X66691101Y-73035600D02*
X66595863Y-72921314D01*
X66595863Y-72921314D02*
X66548244Y-72807028D01*
X66548244Y-72807028D02*
X66500625Y-72578457D01*
X66500625Y-72578457D02*
X66500625Y-72407028D01*
X66500625Y-72407028D02*
X66548244Y-72178457D01*
X66548244Y-72178457D02*
X66595863Y-72064171D01*
X66595863Y-72064171D02*
X66691101Y-71949885D01*
X66691101Y-71949885D02*
X66833958Y-71892742D01*
X66833958Y-71892742D02*
X66929196Y-71892742D01*
X66929196Y-71892742D02*
X67072053Y-71949885D01*
X67072053Y-71949885D02*
X67119672Y-72007028D01*
X68369673Y-45142742D02*
X68369673Y-46114171D01*
X68369673Y-46114171D02*
X68417292Y-46228457D01*
X68417292Y-46228457D02*
X68464911Y-46285600D01*
X68464911Y-46285600D02*
X68560149Y-46342742D01*
X68560149Y-46342742D02*
X68750625Y-46342742D01*
X68750625Y-46342742D02*
X68845863Y-46285600D01*
X68845863Y-46285600D02*
X68893482Y-46228457D01*
X68893482Y-46228457D02*
X68941101Y-46114171D01*
X68941101Y-46114171D02*
X68941101Y-45142742D01*
X69369673Y-46285600D02*
X69512530Y-46342742D01*
X69512530Y-46342742D02*
X69750625Y-46342742D01*
X69750625Y-46342742D02*
X69845863Y-46285600D01*
X69845863Y-46285600D02*
X69893482Y-46228457D01*
X69893482Y-46228457D02*
X69941101Y-46114171D01*
X69941101Y-46114171D02*
X69941101Y-45999885D01*
X69941101Y-45999885D02*
X69893482Y-45885600D01*
X69893482Y-45885600D02*
X69845863Y-45828457D01*
X69845863Y-45828457D02*
X69750625Y-45771314D01*
X69750625Y-45771314D02*
X69560149Y-45714171D01*
X69560149Y-45714171D02*
X69464911Y-45657028D01*
X69464911Y-45657028D02*
X69417292Y-45599885D01*
X69417292Y-45599885D02*
X69369673Y-45485600D01*
X69369673Y-45485600D02*
X69369673Y-45371314D01*
X69369673Y-45371314D02*
X69417292Y-45257028D01*
X69417292Y-45257028D02*
X69464911Y-45199885D01*
X69464911Y-45199885D02*
X69560149Y-45142742D01*
X69560149Y-45142742D02*
X69798244Y-45142742D01*
X69798244Y-45142742D02*
X69941101Y-45199885D01*
X70322054Y-45999885D02*
X70798244Y-45999885D01*
X70226816Y-46342742D02*
X70560149Y-45142742D01*
X70560149Y-45142742D02*
X70893482Y-46342742D01*
X71798244Y-46342742D02*
X71464911Y-45771314D01*
X71226816Y-46342742D02*
X71226816Y-45142742D01*
X71226816Y-45142742D02*
X71607768Y-45142742D01*
X71607768Y-45142742D02*
X71703006Y-45199885D01*
X71703006Y-45199885D02*
X71750625Y-45257028D01*
X71750625Y-45257028D02*
X71798244Y-45371314D01*
X71798244Y-45371314D02*
X71798244Y-45542742D01*
X71798244Y-45542742D02*
X71750625Y-45657028D01*
X71750625Y-45657028D02*
X71703006Y-45714171D01*
X71703006Y-45714171D02*
X71607768Y-45771314D01*
X71607768Y-45771314D02*
X71226816Y-45771314D01*
X72083959Y-45142742D02*
X72655387Y-45142742D01*
X72369673Y-46342742D02*
X72369673Y-45142742D01*
X81822054Y-46527100D02*
X81964911Y-46586623D01*
X81964911Y-46586623D02*
X82203006Y-46586623D01*
X82203006Y-46586623D02*
X82298244Y-46527100D01*
X82298244Y-46527100D02*
X82345863Y-46467576D01*
X82345863Y-46467576D02*
X82393482Y-46348528D01*
X82393482Y-46348528D02*
X82393482Y-46229480D01*
X82393482Y-46229480D02*
X82345863Y-46110433D01*
X82345863Y-46110433D02*
X82298244Y-46050909D01*
X82298244Y-46050909D02*
X82203006Y-45991385D01*
X82203006Y-45991385D02*
X82012530Y-45931861D01*
X82012530Y-45931861D02*
X81917292Y-45872338D01*
X81917292Y-45872338D02*
X81869673Y-45812814D01*
X81869673Y-45812814D02*
X81822054Y-45693766D01*
X81822054Y-45693766D02*
X81822054Y-45574719D01*
X81822054Y-45574719D02*
X81869673Y-45455671D01*
X81869673Y-45455671D02*
X81917292Y-45396147D01*
X81917292Y-45396147D02*
X82012530Y-45336623D01*
X82012530Y-45336623D02*
X82250625Y-45336623D01*
X82250625Y-45336623D02*
X82393482Y-45396147D01*
X82726816Y-45336623D02*
X82964911Y-46586623D01*
X82964911Y-46586623D02*
X83155387Y-45693766D01*
X83155387Y-45693766D02*
X83345863Y-46586623D01*
X83345863Y-46586623D02*
X83583959Y-45336623D01*
X83964911Y-46586623D02*
X83964911Y-45336623D01*
X83964911Y-45336623D02*
X84203006Y-45336623D01*
X84203006Y-45336623D02*
X84345863Y-45396147D01*
X84345863Y-45396147D02*
X84441101Y-45515195D01*
X84441101Y-45515195D02*
X84488720Y-45634242D01*
X84488720Y-45634242D02*
X84536339Y-45872338D01*
X84536339Y-45872338D02*
X84536339Y-46050909D01*
X84536339Y-46050909D02*
X84488720Y-46289004D01*
X84488720Y-46289004D02*
X84441101Y-46408052D01*
X84441101Y-46408052D02*
X84345863Y-46527100D01*
X84345863Y-46527100D02*
X84203006Y-46586623D01*
X84203006Y-46586623D02*
X83964911Y-46586623D01*
D11*
X77583333Y-66204819D02*
X77250000Y-65728628D01*
X77011905Y-66204819D02*
X77011905Y-65204819D01*
X77011905Y-65204819D02*
X77392857Y-65204819D01*
X77392857Y-65204819D02*
X77488095Y-65252438D01*
X77488095Y-65252438D02*
X77535714Y-65300057D01*
X77535714Y-65300057D02*
X77583333Y-65395295D01*
X77583333Y-65395295D02*
X77583333Y-65538152D01*
X77583333Y-65538152D02*
X77535714Y-65633390D01*
X77535714Y-65633390D02*
X77488095Y-65681009D01*
X77488095Y-65681009D02*
X77392857Y-65728628D01*
X77392857Y-65728628D02*
X77011905Y-65728628D01*
X77964286Y-65300057D02*
X78011905Y-65252438D01*
X78011905Y-65252438D02*
X78107143Y-65204819D01*
X78107143Y-65204819D02*
X78345238Y-65204819D01*
X78345238Y-65204819D02*
X78440476Y-65252438D01*
X78440476Y-65252438D02*
X78488095Y-65300057D01*
X78488095Y-65300057D02*
X78535714Y-65395295D01*
X78535714Y-65395295D02*
X78535714Y-65490533D01*
X78535714Y-65490533D02*
X78488095Y-65633390D01*
X78488095Y-65633390D02*
X77916667Y-66204819D01*
X77916667Y-66204819D02*
X78535714Y-66204819D01*
X83333333Y-54704819D02*
X83000000Y-54228628D01*
X82761905Y-54704819D02*
X82761905Y-53704819D01*
X82761905Y-53704819D02*
X83142857Y-53704819D01*
X83142857Y-53704819D02*
X83238095Y-53752438D01*
X83238095Y-53752438D02*
X83285714Y-53800057D01*
X83285714Y-53800057D02*
X83333333Y-53895295D01*
X83333333Y-53895295D02*
X83333333Y-54038152D01*
X83333333Y-54038152D02*
X83285714Y-54133390D01*
X83285714Y-54133390D02*
X83238095Y-54181009D01*
X83238095Y-54181009D02*
X83142857Y-54228628D01*
X83142857Y-54228628D02*
X82761905Y-54228628D01*
X84238095Y-53704819D02*
X83761905Y-53704819D01*
X83761905Y-53704819D02*
X83714286Y-54181009D01*
X83714286Y-54181009D02*
X83761905Y-54133390D01*
X83761905Y-54133390D02*
X83857143Y-54085771D01*
X83857143Y-54085771D02*
X84095238Y-54085771D01*
X84095238Y-54085771D02*
X84190476Y-54133390D01*
X84190476Y-54133390D02*
X84238095Y-54181009D01*
X84238095Y-54181009D02*
X84285714Y-54276247D01*
X84285714Y-54276247D02*
X84285714Y-54514342D01*
X84285714Y-54514342D02*
X84238095Y-54609580D01*
X84238095Y-54609580D02*
X84190476Y-54657200D01*
X84190476Y-54657200D02*
X84095238Y-54704819D01*
X84095238Y-54704819D02*
X83857143Y-54704819D01*
X83857143Y-54704819D02*
X83761905Y-54657200D01*
X83761905Y-54657200D02*
X83714286Y-54609580D01*
X75333333Y-49359580D02*
X75285714Y-49407200D01*
X75285714Y-49407200D02*
X75142857Y-49454819D01*
X75142857Y-49454819D02*
X75047619Y-49454819D01*
X75047619Y-49454819D02*
X74904762Y-49407200D01*
X74904762Y-49407200D02*
X74809524Y-49311961D01*
X74809524Y-49311961D02*
X74761905Y-49216723D01*
X74761905Y-49216723D02*
X74714286Y-49026247D01*
X74714286Y-49026247D02*
X74714286Y-48883390D01*
X74714286Y-48883390D02*
X74761905Y-48692914D01*
X74761905Y-48692914D02*
X74809524Y-48597676D01*
X74809524Y-48597676D02*
X74904762Y-48502438D01*
X74904762Y-48502438D02*
X75047619Y-48454819D01*
X75047619Y-48454819D02*
X75142857Y-48454819D01*
X75142857Y-48454819D02*
X75285714Y-48502438D01*
X75285714Y-48502438D02*
X75333333Y-48550057D01*
X76238095Y-48454819D02*
X75761905Y-48454819D01*
X75761905Y-48454819D02*
X75714286Y-48931009D01*
X75714286Y-48931009D02*
X75761905Y-48883390D01*
X75761905Y-48883390D02*
X75857143Y-48835771D01*
X75857143Y-48835771D02*
X76095238Y-48835771D01*
X76095238Y-48835771D02*
X76190476Y-48883390D01*
X76190476Y-48883390D02*
X76238095Y-48931009D01*
X76238095Y-48931009D02*
X76285714Y-49026247D01*
X76285714Y-49026247D02*
X76285714Y-49264342D01*
X76285714Y-49264342D02*
X76238095Y-49359580D01*
X76238095Y-49359580D02*
X76190476Y-49407200D01*
X76190476Y-49407200D02*
X76095238Y-49454819D01*
X76095238Y-49454819D02*
X75857143Y-49454819D01*
X75857143Y-49454819D02*
X75761905Y-49407200D01*
X75761905Y-49407200D02*
X75714286Y-49359580D01*
X81833333Y-58429580D02*
X81785714Y-58477200D01*
X81785714Y-58477200D02*
X81642857Y-58524819D01*
X81642857Y-58524819D02*
X81547619Y-58524819D01*
X81547619Y-58524819D02*
X81404762Y-58477200D01*
X81404762Y-58477200D02*
X81309524Y-58381961D01*
X81309524Y-58381961D02*
X81261905Y-58286723D01*
X81261905Y-58286723D02*
X81214286Y-58096247D01*
X81214286Y-58096247D02*
X81214286Y-57953390D01*
X81214286Y-57953390D02*
X81261905Y-57762914D01*
X81261905Y-57762914D02*
X81309524Y-57667676D01*
X81309524Y-57667676D02*
X81404762Y-57572438D01*
X81404762Y-57572438D02*
X81547619Y-57524819D01*
X81547619Y-57524819D02*
X81642857Y-57524819D01*
X81642857Y-57524819D02*
X81785714Y-57572438D01*
X81785714Y-57572438D02*
X81833333Y-57620057D01*
X82785714Y-58524819D02*
X82214286Y-58524819D01*
X82500000Y-58524819D02*
X82500000Y-57524819D01*
X82500000Y-57524819D02*
X82404762Y-57667676D01*
X82404762Y-57667676D02*
X82309524Y-57762914D01*
X82309524Y-57762914D02*
X82214286Y-57810533D01*
X79833333Y-63859580D02*
X79785714Y-63907200D01*
X79785714Y-63907200D02*
X79642857Y-63954819D01*
X79642857Y-63954819D02*
X79547619Y-63954819D01*
X79547619Y-63954819D02*
X79404762Y-63907200D01*
X79404762Y-63907200D02*
X79309524Y-63811961D01*
X79309524Y-63811961D02*
X79261905Y-63716723D01*
X79261905Y-63716723D02*
X79214286Y-63526247D01*
X79214286Y-63526247D02*
X79214286Y-63383390D01*
X79214286Y-63383390D02*
X79261905Y-63192914D01*
X79261905Y-63192914D02*
X79309524Y-63097676D01*
X79309524Y-63097676D02*
X79404762Y-63002438D01*
X79404762Y-63002438D02*
X79547619Y-62954819D01*
X79547619Y-62954819D02*
X79642857Y-62954819D01*
X79642857Y-62954819D02*
X79785714Y-63002438D01*
X79785714Y-63002438D02*
X79833333Y-63050057D01*
X80404762Y-63383390D02*
X80309524Y-63335771D01*
X80309524Y-63335771D02*
X80261905Y-63288152D01*
X80261905Y-63288152D02*
X80214286Y-63192914D01*
X80214286Y-63192914D02*
X80214286Y-63145295D01*
X80214286Y-63145295D02*
X80261905Y-63050057D01*
X80261905Y-63050057D02*
X80309524Y-63002438D01*
X80309524Y-63002438D02*
X80404762Y-62954819D01*
X80404762Y-62954819D02*
X80595238Y-62954819D01*
X80595238Y-62954819D02*
X80690476Y-63002438D01*
X80690476Y-63002438D02*
X80738095Y-63050057D01*
X80738095Y-63050057D02*
X80785714Y-63145295D01*
X80785714Y-63145295D02*
X80785714Y-63192914D01*
X80785714Y-63192914D02*
X80738095Y-63288152D01*
X80738095Y-63288152D02*
X80690476Y-63335771D01*
X80690476Y-63335771D02*
X80595238Y-63383390D01*
X80595238Y-63383390D02*
X80404762Y-63383390D01*
X80404762Y-63383390D02*
X80309524Y-63431009D01*
X80309524Y-63431009D02*
X80261905Y-63478628D01*
X80261905Y-63478628D02*
X80214286Y-63573866D01*
X80214286Y-63573866D02*
X80214286Y-63764342D01*
X80214286Y-63764342D02*
X80261905Y-63859580D01*
X80261905Y-63859580D02*
X80309524Y-63907200D01*
X80309524Y-63907200D02*
X80404762Y-63954819D01*
X80404762Y-63954819D02*
X80595238Y-63954819D01*
X80595238Y-63954819D02*
X80690476Y-63907200D01*
X80690476Y-63907200D02*
X80738095Y-63859580D01*
X80738095Y-63859580D02*
X80785714Y-63764342D01*
X80785714Y-63764342D02*
X80785714Y-63573866D01*
X80785714Y-63573866D02*
X80738095Y-63478628D01*
X80738095Y-63478628D02*
X80690476Y-63431009D01*
X80690476Y-63431009D02*
X80595238Y-63383390D01*
X69107142Y-51359580D02*
X69059523Y-51407200D01*
X69059523Y-51407200D02*
X68916666Y-51454819D01*
X68916666Y-51454819D02*
X68821428Y-51454819D01*
X68821428Y-51454819D02*
X68678571Y-51407200D01*
X68678571Y-51407200D02*
X68583333Y-51311961D01*
X68583333Y-51311961D02*
X68535714Y-51216723D01*
X68535714Y-51216723D02*
X68488095Y-51026247D01*
X68488095Y-51026247D02*
X68488095Y-50883390D01*
X68488095Y-50883390D02*
X68535714Y-50692914D01*
X68535714Y-50692914D02*
X68583333Y-50597676D01*
X68583333Y-50597676D02*
X68678571Y-50502438D01*
X68678571Y-50502438D02*
X68821428Y-50454819D01*
X68821428Y-50454819D02*
X68916666Y-50454819D01*
X68916666Y-50454819D02*
X69059523Y-50502438D01*
X69059523Y-50502438D02*
X69107142Y-50550057D01*
X70059523Y-51454819D02*
X69488095Y-51454819D01*
X69773809Y-51454819D02*
X69773809Y-50454819D01*
X69773809Y-50454819D02*
X69678571Y-50597676D01*
X69678571Y-50597676D02*
X69583333Y-50692914D01*
X69583333Y-50692914D02*
X69488095Y-50740533D01*
X70678571Y-50454819D02*
X70773809Y-50454819D01*
X70773809Y-50454819D02*
X70869047Y-50502438D01*
X70869047Y-50502438D02*
X70916666Y-50550057D01*
X70916666Y-50550057D02*
X70964285Y-50645295D01*
X70964285Y-50645295D02*
X71011904Y-50835771D01*
X71011904Y-50835771D02*
X71011904Y-51073866D01*
X71011904Y-51073866D02*
X70964285Y-51264342D01*
X70964285Y-51264342D02*
X70916666Y-51359580D01*
X70916666Y-51359580D02*
X70869047Y-51407200D01*
X70869047Y-51407200D02*
X70773809Y-51454819D01*
X70773809Y-51454819D02*
X70678571Y-51454819D01*
X70678571Y-51454819D02*
X70583333Y-51407200D01*
X70583333Y-51407200D02*
X70535714Y-51359580D01*
X70535714Y-51359580D02*
X70488095Y-51264342D01*
X70488095Y-51264342D02*
X70440476Y-51073866D01*
X70440476Y-51073866D02*
X70440476Y-50835771D01*
X70440476Y-50835771D02*
X70488095Y-50645295D01*
X70488095Y-50645295D02*
X70535714Y-50550057D01*
X70535714Y-50550057D02*
X70583333Y-50502438D01*
X70583333Y-50502438D02*
X70678571Y-50454819D01*
X67083333Y-55109580D02*
X67035714Y-55157200D01*
X67035714Y-55157200D02*
X66892857Y-55204819D01*
X66892857Y-55204819D02*
X66797619Y-55204819D01*
X66797619Y-55204819D02*
X66654762Y-55157200D01*
X66654762Y-55157200D02*
X66559524Y-55061961D01*
X66559524Y-55061961D02*
X66511905Y-54966723D01*
X66511905Y-54966723D02*
X66464286Y-54776247D01*
X66464286Y-54776247D02*
X66464286Y-54633390D01*
X66464286Y-54633390D02*
X66511905Y-54442914D01*
X66511905Y-54442914D02*
X66559524Y-54347676D01*
X66559524Y-54347676D02*
X66654762Y-54252438D01*
X66654762Y-54252438D02*
X66797619Y-54204819D01*
X66797619Y-54204819D02*
X66892857Y-54204819D01*
X66892857Y-54204819D02*
X67035714Y-54252438D01*
X67035714Y-54252438D02*
X67083333Y-54300057D01*
X67940476Y-54538152D02*
X67940476Y-55204819D01*
X67702381Y-54157200D02*
X67464286Y-54871485D01*
X67464286Y-54871485D02*
X68083333Y-54871485D01*
X76238095Y-51204819D02*
X76238095Y-52014342D01*
X76238095Y-52014342D02*
X76285714Y-52109580D01*
X76285714Y-52109580D02*
X76333333Y-52157200D01*
X76333333Y-52157200D02*
X76428571Y-52204819D01*
X76428571Y-52204819D02*
X76619047Y-52204819D01*
X76619047Y-52204819D02*
X76714285Y-52157200D01*
X76714285Y-52157200D02*
X76761904Y-52109580D01*
X76761904Y-52109580D02*
X76809523Y-52014342D01*
X76809523Y-52014342D02*
X76809523Y-51204819D01*
X77238095Y-51300057D02*
X77285714Y-51252438D01*
X77285714Y-51252438D02*
X77380952Y-51204819D01*
X77380952Y-51204819D02*
X77619047Y-51204819D01*
X77619047Y-51204819D02*
X77714285Y-51252438D01*
X77714285Y-51252438D02*
X77761904Y-51300057D01*
X77761904Y-51300057D02*
X77809523Y-51395295D01*
X77809523Y-51395295D02*
X77809523Y-51490533D01*
X77809523Y-51490533D02*
X77761904Y-51633390D01*
X77761904Y-51633390D02*
X77190476Y-52204819D01*
X77190476Y-52204819D02*
X77809523Y-52204819D01*
X92583333Y-64204819D02*
X92250000Y-63728628D01*
X92011905Y-64204819D02*
X92011905Y-63204819D01*
X92011905Y-63204819D02*
X92392857Y-63204819D01*
X92392857Y-63204819D02*
X92488095Y-63252438D01*
X92488095Y-63252438D02*
X92535714Y-63300057D01*
X92535714Y-63300057D02*
X92583333Y-63395295D01*
X92583333Y-63395295D02*
X92583333Y-63538152D01*
X92583333Y-63538152D02*
X92535714Y-63633390D01*
X92535714Y-63633390D02*
X92488095Y-63681009D01*
X92488095Y-63681009D02*
X92392857Y-63728628D01*
X92392857Y-63728628D02*
X92011905Y-63728628D01*
X93535714Y-64204819D02*
X92964286Y-64204819D01*
X93250000Y-64204819D02*
X93250000Y-63204819D01*
X93250000Y-63204819D02*
X93154762Y-63347676D01*
X93154762Y-63347676D02*
X93059524Y-63442914D01*
X93059524Y-63442914D02*
X92964286Y-63490533D01*
X92511905Y-68704819D02*
X92511905Y-67704819D01*
X92511905Y-67704819D02*
X92750000Y-67704819D01*
X92750000Y-67704819D02*
X92892857Y-67752438D01*
X92892857Y-67752438D02*
X92988095Y-67847676D01*
X92988095Y-67847676D02*
X93035714Y-67942914D01*
X93035714Y-67942914D02*
X93083333Y-68133390D01*
X93083333Y-68133390D02*
X93083333Y-68276247D01*
X93083333Y-68276247D02*
X93035714Y-68466723D01*
X93035714Y-68466723D02*
X92988095Y-68561961D01*
X92988095Y-68561961D02*
X92892857Y-68657200D01*
X92892857Y-68657200D02*
X92750000Y-68704819D01*
X92750000Y-68704819D02*
X92511905Y-68704819D01*
X94035714Y-68704819D02*
X93464286Y-68704819D01*
X93750000Y-68704819D02*
X93750000Y-67704819D01*
X93750000Y-67704819D02*
X93654762Y-67847676D01*
X93654762Y-67847676D02*
X93559524Y-67942914D01*
X93559524Y-67942914D02*
X93464286Y-67990533D01*
X81833333Y-53859580D02*
X81785714Y-53907200D01*
X81785714Y-53907200D02*
X81642857Y-53954819D01*
X81642857Y-53954819D02*
X81547619Y-53954819D01*
X81547619Y-53954819D02*
X81404762Y-53907200D01*
X81404762Y-53907200D02*
X81309524Y-53811961D01*
X81309524Y-53811961D02*
X81261905Y-53716723D01*
X81261905Y-53716723D02*
X81214286Y-53526247D01*
X81214286Y-53526247D02*
X81214286Y-53383390D01*
X81214286Y-53383390D02*
X81261905Y-53192914D01*
X81261905Y-53192914D02*
X81309524Y-53097676D01*
X81309524Y-53097676D02*
X81404762Y-53002438D01*
X81404762Y-53002438D02*
X81547619Y-52954819D01*
X81547619Y-52954819D02*
X81642857Y-52954819D01*
X81642857Y-52954819D02*
X81785714Y-53002438D01*
X81785714Y-53002438D02*
X81833333Y-53050057D01*
X82166667Y-52954819D02*
X82833333Y-52954819D01*
X82833333Y-52954819D02*
X82404762Y-53954819D01*
X69083333Y-53109580D02*
X69035714Y-53157200D01*
X69035714Y-53157200D02*
X68892857Y-53204819D01*
X68892857Y-53204819D02*
X68797619Y-53204819D01*
X68797619Y-53204819D02*
X68654762Y-53157200D01*
X68654762Y-53157200D02*
X68559524Y-53061961D01*
X68559524Y-53061961D02*
X68511905Y-52966723D01*
X68511905Y-52966723D02*
X68464286Y-52776247D01*
X68464286Y-52776247D02*
X68464286Y-52633390D01*
X68464286Y-52633390D02*
X68511905Y-52442914D01*
X68511905Y-52442914D02*
X68559524Y-52347676D01*
X68559524Y-52347676D02*
X68654762Y-52252438D01*
X68654762Y-52252438D02*
X68797619Y-52204819D01*
X68797619Y-52204819D02*
X68892857Y-52204819D01*
X68892857Y-52204819D02*
X69035714Y-52252438D01*
X69035714Y-52252438D02*
X69083333Y-52300057D01*
X69559524Y-53204819D02*
X69750000Y-53204819D01*
X69750000Y-53204819D02*
X69845238Y-53157200D01*
X69845238Y-53157200D02*
X69892857Y-53109580D01*
X69892857Y-53109580D02*
X69988095Y-52966723D01*
X69988095Y-52966723D02*
X70035714Y-52776247D01*
X70035714Y-52776247D02*
X70035714Y-52395295D01*
X70035714Y-52395295D02*
X69988095Y-52300057D01*
X69988095Y-52300057D02*
X69940476Y-52252438D01*
X69940476Y-52252438D02*
X69845238Y-52204819D01*
X69845238Y-52204819D02*
X69654762Y-52204819D01*
X69654762Y-52204819D02*
X69559524Y-52252438D01*
X69559524Y-52252438D02*
X69511905Y-52300057D01*
X69511905Y-52300057D02*
X69464286Y-52395295D01*
X69464286Y-52395295D02*
X69464286Y-52633390D01*
X69464286Y-52633390D02*
X69511905Y-52728628D01*
X69511905Y-52728628D02*
X69559524Y-52776247D01*
X69559524Y-52776247D02*
X69654762Y-52823866D01*
X69654762Y-52823866D02*
X69845238Y-52823866D01*
X69845238Y-52823866D02*
X69940476Y-52776247D01*
X69940476Y-52776247D02*
X69988095Y-52728628D01*
X69988095Y-52728628D02*
X70035714Y-52633390D01*
X71583333Y-64859580D02*
X71535714Y-64907200D01*
X71535714Y-64907200D02*
X71392857Y-64954819D01*
X71392857Y-64954819D02*
X71297619Y-64954819D01*
X71297619Y-64954819D02*
X71154762Y-64907200D01*
X71154762Y-64907200D02*
X71059524Y-64811961D01*
X71059524Y-64811961D02*
X71011905Y-64716723D01*
X71011905Y-64716723D02*
X70964286Y-64526247D01*
X70964286Y-64526247D02*
X70964286Y-64383390D01*
X70964286Y-64383390D02*
X71011905Y-64192914D01*
X71011905Y-64192914D02*
X71059524Y-64097676D01*
X71059524Y-64097676D02*
X71154762Y-64002438D01*
X71154762Y-64002438D02*
X71297619Y-63954819D01*
X71297619Y-63954819D02*
X71392857Y-63954819D01*
X71392857Y-63954819D02*
X71535714Y-64002438D01*
X71535714Y-64002438D02*
X71583333Y-64050057D01*
X71916667Y-63954819D02*
X72535714Y-63954819D01*
X72535714Y-63954819D02*
X72202381Y-64335771D01*
X72202381Y-64335771D02*
X72345238Y-64335771D01*
X72345238Y-64335771D02*
X72440476Y-64383390D01*
X72440476Y-64383390D02*
X72488095Y-64431009D01*
X72488095Y-64431009D02*
X72535714Y-64526247D01*
X72535714Y-64526247D02*
X72535714Y-64764342D01*
X72535714Y-64764342D02*
X72488095Y-64859580D01*
X72488095Y-64859580D02*
X72440476Y-64907200D01*
X72440476Y-64907200D02*
X72345238Y-64954819D01*
X72345238Y-64954819D02*
X72059524Y-64954819D01*
X72059524Y-64954819D02*
X71964286Y-64907200D01*
X71964286Y-64907200D02*
X71916667Y-64859580D01*
X90083333Y-62909580D02*
X90035714Y-62957200D01*
X90035714Y-62957200D02*
X89892857Y-63004819D01*
X89892857Y-63004819D02*
X89797619Y-63004819D01*
X89797619Y-63004819D02*
X89654762Y-62957200D01*
X89654762Y-62957200D02*
X89559524Y-62861961D01*
X89559524Y-62861961D02*
X89511905Y-62766723D01*
X89511905Y-62766723D02*
X89464286Y-62576247D01*
X89464286Y-62576247D02*
X89464286Y-62433390D01*
X89464286Y-62433390D02*
X89511905Y-62242914D01*
X89511905Y-62242914D02*
X89559524Y-62147676D01*
X89559524Y-62147676D02*
X89654762Y-62052438D01*
X89654762Y-62052438D02*
X89797619Y-62004819D01*
X89797619Y-62004819D02*
X89892857Y-62004819D01*
X89892857Y-62004819D02*
X90035714Y-62052438D01*
X90035714Y-62052438D02*
X90083333Y-62100057D01*
X90464286Y-62100057D02*
X90511905Y-62052438D01*
X90511905Y-62052438D02*
X90607143Y-62004819D01*
X90607143Y-62004819D02*
X90845238Y-62004819D01*
X90845238Y-62004819D02*
X90940476Y-62052438D01*
X90940476Y-62052438D02*
X90988095Y-62100057D01*
X90988095Y-62100057D02*
X91035714Y-62195295D01*
X91035714Y-62195295D02*
X91035714Y-62290533D01*
X91035714Y-62290533D02*
X90988095Y-62433390D01*
X90988095Y-62433390D02*
X90416667Y-63004819D01*
X90416667Y-63004819D02*
X91035714Y-63004819D01*
X61623809Y-57578628D02*
X61623809Y-58054819D01*
X61290476Y-57054819D02*
X61623809Y-57578628D01*
X61623809Y-57578628D02*
X61957142Y-57054819D01*
X62814285Y-58054819D02*
X62242857Y-58054819D01*
X62528571Y-58054819D02*
X62528571Y-57054819D01*
X62528571Y-57054819D02*
X62433333Y-57197676D01*
X62433333Y-57197676D02*
X62338095Y-57292914D01*
X62338095Y-57292914D02*
X62242857Y-57340533D01*
X68916666Y-65931009D02*
X68583333Y-65931009D01*
X68583333Y-66454819D02*
X68583333Y-65454819D01*
X68583333Y-65454819D02*
X69059523Y-65454819D01*
X69773809Y-65931009D02*
X69916666Y-65978628D01*
X69916666Y-65978628D02*
X69964285Y-66026247D01*
X69964285Y-66026247D02*
X70011904Y-66121485D01*
X70011904Y-66121485D02*
X70011904Y-66264342D01*
X70011904Y-66264342D02*
X69964285Y-66359580D01*
X69964285Y-66359580D02*
X69916666Y-66407200D01*
X69916666Y-66407200D02*
X69821428Y-66454819D01*
X69821428Y-66454819D02*
X69440476Y-66454819D01*
X69440476Y-66454819D02*
X69440476Y-65454819D01*
X69440476Y-65454819D02*
X69773809Y-65454819D01*
X69773809Y-65454819D02*
X69869047Y-65502438D01*
X69869047Y-65502438D02*
X69916666Y-65550057D01*
X69916666Y-65550057D02*
X69964285Y-65645295D01*
X69964285Y-65645295D02*
X69964285Y-65740533D01*
X69964285Y-65740533D02*
X69916666Y-65835771D01*
X69916666Y-65835771D02*
X69869047Y-65883390D01*
X69869047Y-65883390D02*
X69773809Y-65931009D01*
X69773809Y-65931009D02*
X69440476Y-65931009D01*
X70964285Y-66454819D02*
X70392857Y-66454819D01*
X70678571Y-66454819D02*
X70678571Y-65454819D01*
X70678571Y-65454819D02*
X70583333Y-65597676D01*
X70583333Y-65597676D02*
X70488095Y-65692914D01*
X70488095Y-65692914D02*
X70392857Y-65740533D01*
X66583333Y-60689580D02*
X66535714Y-60737200D01*
X66535714Y-60737200D02*
X66392857Y-60784819D01*
X66392857Y-60784819D02*
X66297619Y-60784819D01*
X66297619Y-60784819D02*
X66154762Y-60737200D01*
X66154762Y-60737200D02*
X66059524Y-60641961D01*
X66059524Y-60641961D02*
X66011905Y-60546723D01*
X66011905Y-60546723D02*
X65964286Y-60356247D01*
X65964286Y-60356247D02*
X65964286Y-60213390D01*
X65964286Y-60213390D02*
X66011905Y-60022914D01*
X66011905Y-60022914D02*
X66059524Y-59927676D01*
X66059524Y-59927676D02*
X66154762Y-59832438D01*
X66154762Y-59832438D02*
X66297619Y-59784819D01*
X66297619Y-59784819D02*
X66392857Y-59784819D01*
X66392857Y-59784819D02*
X66535714Y-59832438D01*
X66535714Y-59832438D02*
X66583333Y-59880057D01*
X67440476Y-59784819D02*
X67250000Y-59784819D01*
X67250000Y-59784819D02*
X67154762Y-59832438D01*
X67154762Y-59832438D02*
X67107143Y-59880057D01*
X67107143Y-59880057D02*
X67011905Y-60022914D01*
X67011905Y-60022914D02*
X66964286Y-60213390D01*
X66964286Y-60213390D02*
X66964286Y-60594342D01*
X66964286Y-60594342D02*
X67011905Y-60689580D01*
X67011905Y-60689580D02*
X67059524Y-60737200D01*
X67059524Y-60737200D02*
X67154762Y-60784819D01*
X67154762Y-60784819D02*
X67345238Y-60784819D01*
X67345238Y-60784819D02*
X67440476Y-60737200D01*
X67440476Y-60737200D02*
X67488095Y-60689580D01*
X67488095Y-60689580D02*
X67535714Y-60594342D01*
X67535714Y-60594342D02*
X67535714Y-60356247D01*
X67535714Y-60356247D02*
X67488095Y-60261009D01*
X67488095Y-60261009D02*
X67440476Y-60213390D01*
X67440476Y-60213390D02*
X67345238Y-60165771D01*
X67345238Y-60165771D02*
X67154762Y-60165771D01*
X67154762Y-60165771D02*
X67059524Y-60213390D01*
X67059524Y-60213390D02*
X67011905Y-60261009D01*
X67011905Y-60261009D02*
X66964286Y-60356247D01*
X66107142Y-62109580D02*
X66059523Y-62157200D01*
X66059523Y-62157200D02*
X65916666Y-62204819D01*
X65916666Y-62204819D02*
X65821428Y-62204819D01*
X65821428Y-62204819D02*
X65678571Y-62157200D01*
X65678571Y-62157200D02*
X65583333Y-62061961D01*
X65583333Y-62061961D02*
X65535714Y-61966723D01*
X65535714Y-61966723D02*
X65488095Y-61776247D01*
X65488095Y-61776247D02*
X65488095Y-61633390D01*
X65488095Y-61633390D02*
X65535714Y-61442914D01*
X65535714Y-61442914D02*
X65583333Y-61347676D01*
X65583333Y-61347676D02*
X65678571Y-61252438D01*
X65678571Y-61252438D02*
X65821428Y-61204819D01*
X65821428Y-61204819D02*
X65916666Y-61204819D01*
X65916666Y-61204819D02*
X66059523Y-61252438D01*
X66059523Y-61252438D02*
X66107142Y-61300057D01*
X67059523Y-62204819D02*
X66488095Y-62204819D01*
X66773809Y-62204819D02*
X66773809Y-61204819D01*
X66773809Y-61204819D02*
X66678571Y-61347676D01*
X66678571Y-61347676D02*
X66583333Y-61442914D01*
X66583333Y-61442914D02*
X66488095Y-61490533D01*
X67440476Y-61300057D02*
X67488095Y-61252438D01*
X67488095Y-61252438D02*
X67583333Y-61204819D01*
X67583333Y-61204819D02*
X67821428Y-61204819D01*
X67821428Y-61204819D02*
X67916666Y-61252438D01*
X67916666Y-61252438D02*
X67964285Y-61300057D01*
X67964285Y-61300057D02*
X68011904Y-61395295D01*
X68011904Y-61395295D02*
X68011904Y-61490533D01*
X68011904Y-61490533D02*
X67964285Y-61633390D01*
X67964285Y-61633390D02*
X67392857Y-62204819D01*
X67392857Y-62204819D02*
X68011904Y-62204819D01*
X68607142Y-61109580D02*
X68559523Y-61157200D01*
X68559523Y-61157200D02*
X68416666Y-61204819D01*
X68416666Y-61204819D02*
X68321428Y-61204819D01*
X68321428Y-61204819D02*
X68178571Y-61157200D01*
X68178571Y-61157200D02*
X68083333Y-61061961D01*
X68083333Y-61061961D02*
X68035714Y-60966723D01*
X68035714Y-60966723D02*
X67988095Y-60776247D01*
X67988095Y-60776247D02*
X67988095Y-60633390D01*
X67988095Y-60633390D02*
X68035714Y-60442914D01*
X68035714Y-60442914D02*
X68083333Y-60347676D01*
X68083333Y-60347676D02*
X68178571Y-60252438D01*
X68178571Y-60252438D02*
X68321428Y-60204819D01*
X68321428Y-60204819D02*
X68416666Y-60204819D01*
X68416666Y-60204819D02*
X68559523Y-60252438D01*
X68559523Y-60252438D02*
X68607142Y-60300057D01*
X69559523Y-61204819D02*
X68988095Y-61204819D01*
X69273809Y-61204819D02*
X69273809Y-60204819D01*
X69273809Y-60204819D02*
X69178571Y-60347676D01*
X69178571Y-60347676D02*
X69083333Y-60442914D01*
X69083333Y-60442914D02*
X68988095Y-60490533D01*
X70511904Y-61204819D02*
X69940476Y-61204819D01*
X70226190Y-61204819D02*
X70226190Y-60204819D01*
X70226190Y-60204819D02*
X70130952Y-60347676D01*
X70130952Y-60347676D02*
X70035714Y-60442914D01*
X70035714Y-60442914D02*
X69940476Y-60490533D01*
X71583333Y-66204819D02*
X71250000Y-65728628D01*
X71011905Y-66204819D02*
X71011905Y-65204819D01*
X71011905Y-65204819D02*
X71392857Y-65204819D01*
X71392857Y-65204819D02*
X71488095Y-65252438D01*
X71488095Y-65252438D02*
X71535714Y-65300057D01*
X71535714Y-65300057D02*
X71583333Y-65395295D01*
X71583333Y-65395295D02*
X71583333Y-65538152D01*
X71583333Y-65538152D02*
X71535714Y-65633390D01*
X71535714Y-65633390D02*
X71488095Y-65681009D01*
X71488095Y-65681009D02*
X71392857Y-65728628D01*
X71392857Y-65728628D02*
X71011905Y-65728628D01*
X71916667Y-65204819D02*
X72535714Y-65204819D01*
X72535714Y-65204819D02*
X72202381Y-65585771D01*
X72202381Y-65585771D02*
X72345238Y-65585771D01*
X72345238Y-65585771D02*
X72440476Y-65633390D01*
X72440476Y-65633390D02*
X72488095Y-65681009D01*
X72488095Y-65681009D02*
X72535714Y-65776247D01*
X72535714Y-65776247D02*
X72535714Y-66014342D01*
X72535714Y-66014342D02*
X72488095Y-66109580D01*
X72488095Y-66109580D02*
X72440476Y-66157200D01*
X72440476Y-66157200D02*
X72345238Y-66204819D01*
X72345238Y-66204819D02*
X72059524Y-66204819D01*
X72059524Y-66204819D02*
X71964286Y-66157200D01*
X71964286Y-66157200D02*
X71916667Y-66109580D01*
X70583333Y-47704819D02*
X70250000Y-47228628D01*
X70011905Y-47704819D02*
X70011905Y-46704819D01*
X70011905Y-46704819D02*
X70392857Y-46704819D01*
X70392857Y-46704819D02*
X70488095Y-46752438D01*
X70488095Y-46752438D02*
X70535714Y-46800057D01*
X70535714Y-46800057D02*
X70583333Y-46895295D01*
X70583333Y-46895295D02*
X70583333Y-47038152D01*
X70583333Y-47038152D02*
X70535714Y-47133390D01*
X70535714Y-47133390D02*
X70488095Y-47181009D01*
X70488095Y-47181009D02*
X70392857Y-47228628D01*
X70392857Y-47228628D02*
X70011905Y-47228628D01*
X71440476Y-47038152D02*
X71440476Y-47704819D01*
X71202381Y-46657200D02*
X70964286Y-47371485D01*
X70964286Y-47371485D02*
X71583333Y-47371485D01*
X66357142Y-66359580D02*
X66309523Y-66407200D01*
X66309523Y-66407200D02*
X66166666Y-66454819D01*
X66166666Y-66454819D02*
X66071428Y-66454819D01*
X66071428Y-66454819D02*
X65928571Y-66407200D01*
X65928571Y-66407200D02*
X65833333Y-66311961D01*
X65833333Y-66311961D02*
X65785714Y-66216723D01*
X65785714Y-66216723D02*
X65738095Y-66026247D01*
X65738095Y-66026247D02*
X65738095Y-65883390D01*
X65738095Y-65883390D02*
X65785714Y-65692914D01*
X65785714Y-65692914D02*
X65833333Y-65597676D01*
X65833333Y-65597676D02*
X65928571Y-65502438D01*
X65928571Y-65502438D02*
X66071428Y-65454819D01*
X66071428Y-65454819D02*
X66166666Y-65454819D01*
X66166666Y-65454819D02*
X66309523Y-65502438D01*
X66309523Y-65502438D02*
X66357142Y-65550057D01*
X67309523Y-66454819D02*
X66738095Y-66454819D01*
X67023809Y-66454819D02*
X67023809Y-65454819D01*
X67023809Y-65454819D02*
X66928571Y-65597676D01*
X66928571Y-65597676D02*
X66833333Y-65692914D01*
X66833333Y-65692914D02*
X66738095Y-65740533D01*
X67642857Y-65454819D02*
X68261904Y-65454819D01*
X68261904Y-65454819D02*
X67928571Y-65835771D01*
X67928571Y-65835771D02*
X68071428Y-65835771D01*
X68071428Y-65835771D02*
X68166666Y-65883390D01*
X68166666Y-65883390D02*
X68214285Y-65931009D01*
X68214285Y-65931009D02*
X68261904Y-66026247D01*
X68261904Y-66026247D02*
X68261904Y-66264342D01*
X68261904Y-66264342D02*
X68214285Y-66359580D01*
X68214285Y-66359580D02*
X68166666Y-66407200D01*
X68166666Y-66407200D02*
X68071428Y-66454819D01*
X68071428Y-66454819D02*
X67785714Y-66454819D01*
X67785714Y-66454819D02*
X67690476Y-66407200D01*
X67690476Y-66407200D02*
X67642857Y-66359580D01*
D12*
%TO.C,G\u002A\u002A\u002A*%
G36*
X60995964Y-65754754D02*
G01*
X61058554Y-65755227D01*
X61289972Y-65757317D01*
X61473614Y-65759458D01*
X61615064Y-65762054D01*
X61719906Y-65765511D01*
X61793724Y-65770233D01*
X61842103Y-65776626D01*
X61870626Y-65785095D01*
X61884877Y-65796045D01*
X61890441Y-65809881D01*
X61891393Y-65815651D01*
X61883323Y-65856724D01*
X61856283Y-65937101D01*
X61813742Y-66047673D01*
X61759171Y-66179328D01*
X61709898Y-66292115D01*
X61648463Y-66433146D01*
X61596364Y-66559424D01*
X61557030Y-66662080D01*
X61533890Y-66732248D01*
X61529341Y-66759027D01*
X61537033Y-66772962D01*
X61558243Y-66783973D01*
X61599137Y-66792600D01*
X61665881Y-66799381D01*
X61764642Y-66804855D01*
X61901585Y-66809562D01*
X62082876Y-66814039D01*
X62183141Y-66816176D01*
X62407628Y-66821726D01*
X62582609Y-66828196D01*
X62711935Y-66835851D01*
X62799456Y-66844955D01*
X62849026Y-66855775D01*
X62861831Y-66862867D01*
X62894482Y-66876717D01*
X62963767Y-66886606D01*
X63074436Y-66892872D01*
X63231235Y-66895853D01*
X63330021Y-66896218D01*
X63764916Y-66896218D01*
X63764916Y-67763340D01*
X63764916Y-68630462D01*
X62418135Y-68630462D01*
X61071354Y-68630462D01*
X60334424Y-69304149D01*
X60166533Y-69456737D01*
X60009611Y-69597642D01*
X59868302Y-69722826D01*
X59747246Y-69828247D01*
X59651087Y-69909868D01*
X59584467Y-69963647D01*
X59552028Y-69985546D01*
X59551087Y-69985794D01*
X59497175Y-69973670D01*
X59469380Y-69951218D01*
X59459326Y-69938104D01*
X59453328Y-69922944D01*
X59453323Y-69900673D01*
X59461247Y-69866227D01*
X59479038Y-69814540D01*
X59508630Y-69740548D01*
X59551962Y-69639186D01*
X59610970Y-69505388D01*
X59687590Y-69334089D01*
X59783760Y-69120225D01*
X59806052Y-69070693D01*
X59998183Y-68643802D01*
X58873303Y-68630027D01*
X57748425Y-68616251D01*
X58875325Y-68610016D01*
X60002225Y-68603781D01*
X60041516Y-68509745D01*
X60064709Y-68449933D01*
X60073078Y-68405807D01*
X60060602Y-68374983D01*
X60021261Y-68355078D01*
X59949035Y-68343707D01*
X59837906Y-68338487D01*
X59681854Y-68337035D01*
X59605212Y-68336975D01*
X59427458Y-68335987D01*
X59296168Y-68332057D01*
X59204467Y-68323732D01*
X59145479Y-68309558D01*
X59112327Y-68288083D01*
X59098136Y-68257854D01*
X59095798Y-68229346D01*
X59106369Y-68193660D01*
X59136067Y-68116653D01*
X59139015Y-68109501D01*
X59371989Y-68109501D01*
X59384660Y-68124094D01*
X59414498Y-68134820D01*
X59468479Y-68142236D01*
X59553580Y-68146899D01*
X59676776Y-68149365D01*
X59845046Y-68150192D01*
X59882041Y-68150210D01*
X60062807Y-68150970D01*
X60196199Y-68153533D01*
X60288188Y-68158321D01*
X60344742Y-68165755D01*
X60371832Y-68176259D01*
X60376470Y-68185183D01*
X60365965Y-68218393D01*
X60336442Y-68293127D01*
X60290895Y-68402296D01*
X60232315Y-68538812D01*
X60163695Y-68695588D01*
X60109664Y-68817227D01*
X60019442Y-69020290D01*
X59950060Y-69179606D01*
X59899826Y-69299799D01*
X59867053Y-69385494D01*
X59850050Y-69441314D01*
X59847128Y-69471885D01*
X59856597Y-69481832D01*
X59867600Y-69479797D01*
X59891023Y-69460680D01*
X59950402Y-69408455D01*
X60042417Y-69326134D01*
X60163745Y-69216729D01*
X60311065Y-69083252D01*
X60481055Y-68928715D01*
X60670393Y-68756129D01*
X60875758Y-68568506D01*
X61093829Y-68368859D01*
X61186808Y-68283613D01*
X61417453Y-68071396D01*
X61633172Y-67871600D01*
X61830985Y-67687064D01*
X62007909Y-67520627D01*
X62160963Y-67375128D01*
X62287166Y-67253404D01*
X62383536Y-67158296D01*
X62447092Y-67092641D01*
X62474853Y-67059278D01*
X62475848Y-67056302D01*
X62450038Y-67027449D01*
X62378803Y-67011135D01*
X62344155Y-67008158D01*
X62217886Y-67000036D01*
X61350539Y-67803153D01*
X61170664Y-67969383D01*
X61003399Y-68123331D01*
X60852671Y-68261428D01*
X60722406Y-68380107D01*
X60616532Y-68475799D01*
X60538974Y-68544936D01*
X60493659Y-68583951D01*
X60483193Y-68591327D01*
X60493491Y-68562581D01*
X60521566Y-68495147D01*
X60563186Y-68398952D01*
X60614120Y-68283919D01*
X60616596Y-68278384D01*
X60668157Y-68160461D01*
X60710451Y-68058499D01*
X60739168Y-67983266D01*
X60749995Y-67945532D01*
X60750000Y-67945234D01*
X60739339Y-67932212D01*
X60703296Y-67922659D01*
X60635778Y-67916129D01*
X60530694Y-67912173D01*
X60381952Y-67910345D01*
X60271322Y-67910084D01*
X60094301Y-67908614D01*
X59950992Y-67904405D01*
X59846925Y-67897754D01*
X59787629Y-67888961D01*
X59776112Y-67883333D01*
X59780276Y-67850159D01*
X59803583Y-67778899D01*
X59842313Y-67679684D01*
X59892749Y-67562643D01*
X59898530Y-67549825D01*
X60037481Y-67243067D01*
X60379715Y-67243067D01*
X60721949Y-67243067D01*
X60764585Y-67160617D01*
X60792793Y-67097704D01*
X60797123Y-67054052D01*
X60771467Y-67026208D01*
X60709713Y-67010717D01*
X60605752Y-67004126D01*
X60485605Y-67002941D01*
X60366017Y-67000957D01*
X60267279Y-66995583D01*
X60200882Y-66987683D01*
X60178581Y-66979846D01*
X60184913Y-66950720D01*
X60209128Y-66883178D01*
X60246917Y-66787327D01*
X60293973Y-66673280D01*
X60345986Y-66551147D01*
X60398648Y-66431037D01*
X60447651Y-66323061D01*
X60488686Y-66237329D01*
X60517445Y-66183953D01*
X60518358Y-66182510D01*
X60541508Y-66170067D01*
X60596245Y-66160834D01*
X60687680Y-66154494D01*
X60820922Y-66150729D01*
X61001079Y-66149221D01*
X61055165Y-66149159D01*
X61570627Y-66149159D01*
X61603583Y-66069597D01*
X61622742Y-66020988D01*
X61631472Y-65983280D01*
X61624363Y-65955175D01*
X61596008Y-65935371D01*
X61540998Y-65922570D01*
X61453925Y-65915472D01*
X61329381Y-65912776D01*
X61161956Y-65913184D01*
X60961253Y-65915228D01*
X60317416Y-65922374D01*
X59836892Y-66995583D01*
X59734292Y-67226403D01*
X59640458Y-67440773D01*
X59557418Y-67633829D01*
X59487203Y-67800706D01*
X59431843Y-67936540D01*
X59393368Y-68036467D01*
X59373809Y-68095623D01*
X59371989Y-68109501D01*
X59139015Y-68109501D01*
X59181870Y-68005551D01*
X59240758Y-67867580D01*
X59309709Y-67709968D01*
X59362460Y-67591563D01*
X59435725Y-67425690D01*
X59499882Y-67275365D01*
X59552138Y-67147562D01*
X59589697Y-67049252D01*
X59609766Y-66987409D01*
X59611804Y-66969356D01*
X59611474Y-66954110D01*
X59625289Y-66960372D01*
X59652729Y-66961875D01*
X59656092Y-66951154D01*
X59632435Y-66942524D01*
X59560781Y-66935134D01*
X59440107Y-66928946D01*
X59269391Y-66923924D01*
X59047608Y-66920031D01*
X58773736Y-66917230D01*
X58702258Y-66916730D01*
X57748425Y-66910560D01*
X58721575Y-66896719D01*
X59694726Y-66882878D01*
X59939661Y-66339813D01*
X60011770Y-66181211D01*
X60077668Y-66038679D01*
X60133877Y-65919545D01*
X60176918Y-65831141D01*
X60203313Y-65780796D01*
X60208888Y-65772456D01*
X60241201Y-65766345D01*
X60320949Y-65761339D01*
X60442216Y-65757556D01*
X60599086Y-65755118D01*
X60785641Y-65754144D01*
X60995964Y-65754754D01*
G37*
D13*
%TO.C,R2*%
X75846359Y-64870000D02*
X76153641Y-64870000D01*
X75846359Y-65630000D02*
X76153641Y-65630000D01*
%TO.C,R5*%
X82870000Y-55596359D02*
X82870000Y-55903641D01*
X83630000Y-55596359D02*
X83630000Y-55903641D01*
%TO.C,C5*%
X72609420Y-48490000D02*
X72890580Y-48490000D01*
X72609420Y-49510000D02*
X72890580Y-49510000D01*
%TO.C,C1*%
X82988748Y-59015000D02*
X83511252Y-59015000D01*
X82988748Y-60485000D02*
X83511252Y-60485000D01*
%TO.C,J3*%
X78100000Y-41920000D02*
X78100000Y-44580000D01*
X85780000Y-41920000D02*
X78100000Y-41920000D01*
X85780000Y-41920000D02*
X85780000Y-44580000D01*
X85780000Y-44580000D02*
X78100000Y-44580000D01*
X87050000Y-41920000D02*
X88380000Y-41920000D01*
X88380000Y-41920000D02*
X88380000Y-43250000D01*
%TO.C,C8*%
X78357836Y-63140000D02*
X78142164Y-63140000D01*
X78357836Y-63860000D02*
X78142164Y-63860000D01*
%TO.C,C10*%
X72642164Y-50640000D02*
X72857836Y-50640000D01*
X72642164Y-51360000D02*
X72857836Y-51360000D01*
%TO.C,C4*%
X67140000Y-56437836D02*
X67140000Y-56222164D01*
X67860000Y-56437836D02*
X67860000Y-56222164D01*
%TO.C,J1*%
X67840000Y-74080000D02*
X67840000Y-72750000D01*
X69170000Y-74080000D02*
X67840000Y-74080000D01*
X70440000Y-71420000D02*
X78120000Y-71420000D01*
X70440000Y-74080000D02*
X70440000Y-71420000D01*
X70440000Y-74080000D02*
X78120000Y-74080000D01*
X78120000Y-74080000D02*
X78120000Y-71420000D01*
%TO.C,U2*%
X71640000Y-53890000D02*
X71640000Y-54340000D01*
X71640000Y-61110000D02*
X71640000Y-60660000D01*
X72090000Y-53890000D02*
X71640000Y-53890000D01*
X72090000Y-61110000D02*
X71640000Y-61110000D01*
X78410000Y-53890000D02*
X78860000Y-53890000D01*
X78410000Y-61110000D02*
X78860000Y-61110000D01*
X78860000Y-53890000D02*
X78860000Y-54340000D01*
X78860000Y-61110000D02*
X78860000Y-60660000D01*
X71050000Y-54340000D02*
X70710000Y-53870000D01*
X71390000Y-53870000D01*
X71050000Y-54340000D01*
G36*
X71050000Y-54340000D02*
G01*
X70710000Y-53870000D01*
X71390000Y-53870000D01*
X71050000Y-54340000D01*
G37*
%TO.C,R1*%
X92120000Y-65413641D02*
X92120000Y-65106359D01*
X92880000Y-65413641D02*
X92880000Y-65106359D01*
%TO.C,D1*%
X89950000Y-68985000D02*
X92235000Y-68985000D01*
X92235000Y-67515000D02*
X89950000Y-67515000D01*
X92235000Y-68985000D02*
X92235000Y-67515000D01*
%TO.C,J2*%
X65340000Y-41920000D02*
X65340000Y-44580000D01*
X73020000Y-41920000D02*
X65340000Y-41920000D01*
X73020000Y-41920000D02*
X73020000Y-44580000D01*
X73020000Y-44580000D02*
X65340000Y-44580000D01*
X74290000Y-41920000D02*
X75620000Y-41920000D01*
X75620000Y-41920000D02*
X75620000Y-43250000D01*
%TO.C,C7*%
X80890000Y-54892164D02*
X80890000Y-55107836D01*
X81610000Y-54892164D02*
X81610000Y-55107836D01*
%TO.C,C9*%
X68890000Y-54357836D02*
X68890000Y-54142164D01*
X69610000Y-54357836D02*
X69610000Y-54142164D01*
%TO.C,C3*%
X72142164Y-62890000D02*
X72357836Y-62890000D01*
X72142164Y-63610000D02*
X72357836Y-63610000D01*
D11*
%TO.C,J4*%
X90920000Y-56330000D02*
X90920000Y-57055000D01*
X90920000Y-57055000D02*
X91345000Y-57055000D01*
X91345000Y-53455000D02*
X91345000Y-52455000D01*
X91345000Y-57055000D02*
X91345000Y-58055000D01*
X93095000Y-59405000D02*
X94495000Y-59405000D01*
X94495000Y-51105000D02*
X93095000Y-51105000D01*
X96895000Y-59405000D02*
X97045000Y-59405000D01*
X97045000Y-51105000D02*
X96895000Y-51105000D01*
X97045000Y-51405000D02*
X97045000Y-51105000D01*
X97045000Y-59105000D02*
X97495000Y-59105000D01*
X97045000Y-59405000D02*
X97045000Y-59105000D01*
X97495000Y-51405000D02*
X97045000Y-51405000D01*
D13*
%TO.C,C2*%
X89265000Y-65311252D02*
X89265000Y-64788748D01*
X90735000Y-65311252D02*
X90735000Y-64788748D01*
%TO.C,Y1*%
X63100000Y-55500000D02*
X63100000Y-59500000D01*
X66400000Y-55500000D02*
X63100000Y-55500000D01*
%TO.C,FB1*%
X69490000Y-63337221D02*
X69490000Y-63662779D01*
X70510000Y-63337221D02*
X70510000Y-63662779D01*
%TO.C,C6*%
X67140000Y-58687836D02*
X67140000Y-58472164D01*
X67860000Y-58687836D02*
X67860000Y-58472164D01*
%TO.C,C12*%
X67857836Y-62640000D02*
X67642164Y-62640000D01*
X67857836Y-63360000D02*
X67642164Y-63360000D01*
%TO.C,C11*%
X68890000Y-59357836D02*
X68890000Y-59142164D01*
X69610000Y-59357836D02*
X69610000Y-59142164D01*
%TO.C,R3*%
X73903641Y-64870000D02*
X73596359Y-64870000D01*
X73903641Y-65630000D02*
X73596359Y-65630000D01*
%TO.C,SW1*%
X57745000Y-47400000D02*
X57745000Y-53100000D01*
X58755000Y-53700000D02*
X59545000Y-53700000D01*
X59545000Y-46800000D02*
X58755000Y-46800000D01*
X60595000Y-48650000D02*
X60595000Y-50350000D01*
X60595000Y-51650000D02*
X60595000Y-51850000D01*
%TO.C,R4*%
X72596359Y-47120000D02*
X72903641Y-47120000D01*
X72596359Y-47880000D02*
X72903641Y-47880000D01*
%TO.C,C13*%
X67857836Y-64390000D02*
X67642164Y-64390000D01*
X67857836Y-65110000D02*
X67642164Y-65110000D01*
%TO.C,U1*%
X81090000Y-63650000D02*
X81090000Y-67410000D01*
X81090000Y-67410000D02*
X82350000Y-67410000D01*
X87910000Y-63650000D02*
X87910000Y-67410000D01*
X87910000Y-67410000D02*
X86650000Y-67410000D01*
X88140000Y-62610000D02*
X87810000Y-62370000D01*
X88140000Y-62130000D01*
X88140000Y-62610000D01*
G36*
X88140000Y-62610000D02*
G01*
X87810000Y-62370000D01*
X88140000Y-62130000D01*
X88140000Y-62610000D01*
G37*
%TD*%
M02*
