%TF.GenerationSoftware,KiCad,Pcbnew,8.0.3*%
%TF.CreationDate,2024-06-13T12:42:30-05:00*%
%TF.ProjectId,STM32BluePill,53544d33-3242-46c7-9565-50696c6c2e6b,rev?*%
%TF.SameCoordinates,Original*%
%TF.FileFunction,Legend,Bot*%
%TF.FilePolarity,Positive*%
%FSLAX46Y46*%
G04 Gerber Fmt 4.6, Leading zero omitted, Abs format (unit mm)*
G04 Created by KiCad (PCBNEW 8.0.3) date 2024-06-13 12:42:30*
%MOMM*%
%LPD*%
G01*
G04 APERTURE LIST*
%ADD10C,0.200000*%
G04 APERTURE END LIST*
D10*
X97189850Y-54460809D02*
X97094612Y-54460809D01*
X97094612Y-54460809D02*
X96999374Y-54517952D01*
X96999374Y-54517952D02*
X96951755Y-54575095D01*
X96951755Y-54575095D02*
X96904136Y-54689381D01*
X96904136Y-54689381D02*
X96856517Y-54917952D01*
X96856517Y-54917952D02*
X96856517Y-55203667D01*
X96856517Y-55203667D02*
X96904136Y-55432238D01*
X96904136Y-55432238D02*
X96951755Y-55546524D01*
X96951755Y-55546524D02*
X96999374Y-55603667D01*
X96999374Y-55603667D02*
X97094612Y-55660809D01*
X97094612Y-55660809D02*
X97189850Y-55660809D01*
X97189850Y-55660809D02*
X97285088Y-55603667D01*
X97285088Y-55603667D02*
X97332707Y-55546524D01*
X97332707Y-55546524D02*
X97380326Y-55432238D01*
X97380326Y-55432238D02*
X97427945Y-55203667D01*
X97427945Y-55203667D02*
X97427945Y-54917952D01*
X97427945Y-54917952D02*
X97380326Y-54689381D01*
X97380326Y-54689381D02*
X97332707Y-54575095D01*
X97332707Y-54575095D02*
X97285088Y-54517952D01*
X97285088Y-54517952D02*
X97189850Y-54460809D01*
X95999374Y-54460809D02*
X96189850Y-54460809D01*
X96189850Y-54460809D02*
X96285088Y-54517952D01*
X96285088Y-54517952D02*
X96332707Y-54575095D01*
X96332707Y-54575095D02*
X96427945Y-54746524D01*
X96427945Y-54746524D02*
X96475564Y-54975095D01*
X96475564Y-54975095D02*
X96475564Y-55432238D01*
X96475564Y-55432238D02*
X96427945Y-55546524D01*
X96427945Y-55546524D02*
X96380326Y-55603667D01*
X96380326Y-55603667D02*
X96285088Y-55660809D01*
X96285088Y-55660809D02*
X96094612Y-55660809D01*
X96094612Y-55660809D02*
X95999374Y-55603667D01*
X95999374Y-55603667D02*
X95951755Y-55546524D01*
X95951755Y-55546524D02*
X95904136Y-55432238D01*
X95904136Y-55432238D02*
X95904136Y-55146524D01*
X95904136Y-55146524D02*
X95951755Y-55032238D01*
X95951755Y-55032238D02*
X95999374Y-54975095D01*
X95999374Y-54975095D02*
X96094612Y-54917952D01*
X96094612Y-54917952D02*
X96285088Y-54917952D01*
X96285088Y-54917952D02*
X96380326Y-54975095D01*
X96380326Y-54975095D02*
X96427945Y-55032238D01*
X96427945Y-55032238D02*
X96475564Y-55146524D01*
X94761279Y-54403667D02*
X95618421Y-55946524D01*
X93904136Y-55660809D02*
X94475564Y-55660809D01*
X94189850Y-55660809D02*
X94189850Y-54460809D01*
X94189850Y-54460809D02*
X94285088Y-54632238D01*
X94285088Y-54632238D02*
X94380326Y-54746524D01*
X94380326Y-54746524D02*
X94475564Y-54803667D01*
X93570802Y-54460809D02*
X92951755Y-54460809D01*
X92951755Y-54460809D02*
X93285088Y-54917952D01*
X93285088Y-54917952D02*
X93142231Y-54917952D01*
X93142231Y-54917952D02*
X93046993Y-54975095D01*
X93046993Y-54975095D02*
X92999374Y-55032238D01*
X92999374Y-55032238D02*
X92951755Y-55146524D01*
X92951755Y-55146524D02*
X92951755Y-55432238D01*
X92951755Y-55432238D02*
X92999374Y-55546524D01*
X92999374Y-55546524D02*
X93046993Y-55603667D01*
X93046993Y-55603667D02*
X93142231Y-55660809D01*
X93142231Y-55660809D02*
X93427945Y-55660809D01*
X93427945Y-55660809D02*
X93523183Y-55603667D01*
X93523183Y-55603667D02*
X93570802Y-55546524D01*
X91808898Y-54403667D02*
X92666040Y-55946524D01*
X91523183Y-54575095D02*
X91475564Y-54517952D01*
X91475564Y-54517952D02*
X91380326Y-54460809D01*
X91380326Y-54460809D02*
X91142231Y-54460809D01*
X91142231Y-54460809D02*
X91046993Y-54517952D01*
X91046993Y-54517952D02*
X90999374Y-54575095D01*
X90999374Y-54575095D02*
X90951755Y-54689381D01*
X90951755Y-54689381D02*
X90951755Y-54803667D01*
X90951755Y-54803667D02*
X90999374Y-54975095D01*
X90999374Y-54975095D02*
X91570802Y-55660809D01*
X91570802Y-55660809D02*
X90951755Y-55660809D01*
X90094612Y-54860809D02*
X90094612Y-55660809D01*
X90332707Y-54403667D02*
X90570802Y-55260809D01*
X90570802Y-55260809D02*
X89951755Y-55260809D01*
X97523183Y-56392742D02*
X97189850Y-57592742D01*
X97189850Y-57592742D02*
X96856517Y-56392742D01*
X96332707Y-56392742D02*
X96237469Y-56392742D01*
X96237469Y-56392742D02*
X96142231Y-56449885D01*
X96142231Y-56449885D02*
X96094612Y-56507028D01*
X96094612Y-56507028D02*
X96046993Y-56621314D01*
X96046993Y-56621314D02*
X95999374Y-56849885D01*
X95999374Y-56849885D02*
X95999374Y-57135600D01*
X95999374Y-57135600D02*
X96046993Y-57364171D01*
X96046993Y-57364171D02*
X96094612Y-57478457D01*
X96094612Y-57478457D02*
X96142231Y-57535600D01*
X96142231Y-57535600D02*
X96237469Y-57592742D01*
X96237469Y-57592742D02*
X96332707Y-57592742D01*
X96332707Y-57592742D02*
X96427945Y-57535600D01*
X96427945Y-57535600D02*
X96475564Y-57478457D01*
X96475564Y-57478457D02*
X96523183Y-57364171D01*
X96523183Y-57364171D02*
X96570802Y-57135600D01*
X96570802Y-57135600D02*
X96570802Y-56849885D01*
X96570802Y-56849885D02*
X96523183Y-56621314D01*
X96523183Y-56621314D02*
X96475564Y-56507028D01*
X96475564Y-56507028D02*
X96427945Y-56449885D01*
X96427945Y-56449885D02*
X96332707Y-56392742D01*
X95570802Y-57478457D02*
X95523183Y-57535600D01*
X95523183Y-57535600D02*
X95570802Y-57592742D01*
X95570802Y-57592742D02*
X95618421Y-57535600D01*
X95618421Y-57535600D02*
X95570802Y-57478457D01*
X95570802Y-57478457D02*
X95570802Y-57592742D01*
X94570803Y-57592742D02*
X95142231Y-57592742D01*
X94856517Y-57592742D02*
X94856517Y-56392742D01*
X94856517Y-56392742D02*
X94951755Y-56564171D01*
X94951755Y-56564171D02*
X95046993Y-56678457D01*
X95046993Y-56678457D02*
X95142231Y-56735600D01*
M02*
