%TF.GenerationSoftware,KiCad,Pcbnew,8.0.3*%
%TF.CreationDate,2024-06-13T12:42:30-05:00*%
%TF.ProjectId,STM32BluePill,53544d33-3242-46c7-9565-50696c6c2e6b,rev?*%
%TF.SameCoordinates,Original*%
%TF.FileFunction,Copper,L2,Bot*%
%TF.FilePolarity,Positive*%
%FSLAX46Y46*%
G04 Gerber Fmt 4.6, Leading zero omitted, Abs format (unit mm)*
G04 Created by KiCad (PCBNEW 8.0.3) date 2024-06-13 12:42:30*
%MOMM*%
%LPD*%
G01*
G04 APERTURE LIST*
%TA.AperFunction,ComponentPad*%
%ADD10R,1.700000X1.700000*%
%TD*%
%TA.AperFunction,ComponentPad*%
%ADD11O,1.700000X1.700000*%
%TD*%
%TA.AperFunction,ComponentPad*%
%ADD12O,1.800000X1.150000*%
%TD*%
%TA.AperFunction,ComponentPad*%
%ADD13O,2.000000X1.450000*%
%TD*%
%TA.AperFunction,ViaPad*%
%ADD14C,0.800000*%
%TD*%
%TA.AperFunction,Conductor*%
%ADD15C,0.500000*%
%TD*%
G04 APERTURE END LIST*
D10*
%TO.P,J3,1,Pin_1*%
%TO.N,+3.3V*%
X87050000Y-43250000D03*
D11*
%TO.P,J3,2,Pin_2*%
%TO.N,/SWDIO*%
X84510000Y-43250000D03*
%TO.P,J3,3,Pin_3*%
%TO.N,/SWCLK*%
X81970000Y-43250000D03*
%TO.P,J3,4,Pin_4*%
%TO.N,GND*%
X79430000Y-43250000D03*
%TD*%
D10*
%TO.P,J1,1,Pin_1*%
%TO.N,+3.3V*%
X69170000Y-72750000D03*
D11*
%TO.P,J1,2,Pin_2*%
%TO.N,/I2C2_SCL*%
X71710000Y-72750000D03*
%TO.P,J1,3,Pin_3*%
%TO.N,/I2C2_SDA*%
X74250000Y-72750000D03*
%TO.P,J1,4,Pin_4*%
%TO.N,GND*%
X76790000Y-72750000D03*
%TD*%
D10*
%TO.P,J2,1,Pin_1*%
%TO.N,+3.3V*%
X74290000Y-43250000D03*
D11*
%TO.P,J2,2,Pin_2*%
%TO.N,/USART1_TX*%
X71750000Y-43250000D03*
%TO.P,J2,3,Pin_3*%
%TO.N,/USART1_RX*%
X69210000Y-43250000D03*
%TO.P,J2,4,Pin_4*%
%TO.N,GND*%
X66670000Y-43250000D03*
%TD*%
D12*
%TO.P,J4,6,Shield*%
%TO.N,unconnected-(J4-Shield-Pad6)_1*%
X95695000Y-59130000D03*
D13*
%TO.N,unconnected-(J4-Shield-Pad6)*%
X91895000Y-58980000D03*
%TO.N,unconnected-(J4-Shield-Pad6)_0*%
X91895000Y-51530000D03*
D12*
%TO.N,unconnected-(J4-Shield-Pad6)_2*%
X95695000Y-51380000D03*
%TD*%
D14*
%TO.N,GND*%
X68750000Y-55750000D03*
X63750000Y-60250000D03*
X66250000Y-64750000D03*
X73625000Y-63375000D03*
X77500000Y-60250000D03*
X89750000Y-54000000D03*
X66250000Y-63000000D03*
X68418908Y-57608430D03*
X93500000Y-64750000D03*
X73000000Y-54750000D03*
X85500000Y-60500000D03*
X88750000Y-61750000D03*
X70250000Y-53750000D03*
X91500000Y-64000000D03*
X82250000Y-55500000D03*
X85500000Y-59500000D03*
X88750000Y-62750000D03*
X65750000Y-54750000D03*
X62750000Y-48000000D03*
X72500000Y-58250000D03*
%TO.N,+3.3V*%
X75760000Y-67000000D03*
X74000000Y-66750000D03*
X72490000Y-66750000D03*
X77260000Y-67000000D03*
%TD*%
D15*
%TO.N,+3.3V*%
X77260000Y-67000000D02*
X75760000Y-67000000D01*
X74000000Y-66750000D02*
X72750000Y-66750000D01*
X72750000Y-66750000D02*
X72490000Y-66750000D01*
%TD*%
%TA.AperFunction,Conductor*%
%TO.N,GND*%
G36*
X95000855Y-40000011D02*
G01*
X95162269Y-40002274D01*
X95174390Y-40003041D01*
X95478553Y-40037312D01*
X95495992Y-40039277D01*
X95509700Y-40041606D01*
X95824366Y-40113426D01*
X95837725Y-40117273D01*
X96142392Y-40223881D01*
X96155228Y-40229199D01*
X96446025Y-40369239D01*
X96458195Y-40375965D01*
X96731486Y-40547685D01*
X96742827Y-40555732D01*
X96995173Y-40756971D01*
X97005541Y-40766237D01*
X97233762Y-40994458D01*
X97243028Y-41004826D01*
X97444267Y-41257172D01*
X97452314Y-41268513D01*
X97624034Y-41541804D01*
X97630760Y-41553974D01*
X97770798Y-41844766D01*
X97776120Y-41857613D01*
X97882724Y-42162270D01*
X97886573Y-42175633D01*
X97958393Y-42490299D01*
X97960722Y-42504007D01*
X97996957Y-42825597D01*
X97997725Y-42837743D01*
X97999988Y-42999144D01*
X98000000Y-43000882D01*
X98000000Y-72999117D01*
X97999988Y-73000855D01*
X97997725Y-73162256D01*
X97996957Y-73174402D01*
X97960722Y-73495992D01*
X97958393Y-73509700D01*
X97886573Y-73824366D01*
X97882724Y-73837729D01*
X97776120Y-74142386D01*
X97770798Y-74155233D01*
X97630760Y-74446025D01*
X97624034Y-74458195D01*
X97452314Y-74731486D01*
X97444267Y-74742827D01*
X97243028Y-74995173D01*
X97233762Y-75005541D01*
X97005541Y-75233762D01*
X96995173Y-75243028D01*
X96742827Y-75444267D01*
X96731486Y-75452314D01*
X96458195Y-75624034D01*
X96446025Y-75630760D01*
X96155233Y-75770798D01*
X96142386Y-75776120D01*
X95837729Y-75882724D01*
X95824366Y-75886573D01*
X95509700Y-75958393D01*
X95495992Y-75960722D01*
X95174402Y-75996957D01*
X95162256Y-75997725D01*
X95000856Y-75999988D01*
X94999118Y-76000000D01*
X60000882Y-76000000D01*
X59999144Y-75999988D01*
X59837743Y-75997725D01*
X59825597Y-75996957D01*
X59504007Y-75960722D01*
X59490299Y-75958393D01*
X59175633Y-75886573D01*
X59162270Y-75882724D01*
X58857613Y-75776120D01*
X58844766Y-75770798D01*
X58553974Y-75630760D01*
X58541804Y-75624034D01*
X58268513Y-75452314D01*
X58257172Y-75444267D01*
X58004826Y-75243028D01*
X57994458Y-75233762D01*
X57766237Y-75005541D01*
X57756971Y-74995173D01*
X57555732Y-74742827D01*
X57547685Y-74731486D01*
X57375965Y-74458195D01*
X57369239Y-74446025D01*
X57323237Y-74350500D01*
X57229199Y-74155228D01*
X57223879Y-74142386D01*
X57182254Y-74023429D01*
X57117273Y-73837725D01*
X57113426Y-73824366D01*
X57041606Y-73509700D01*
X57039277Y-73495992D01*
X57037312Y-73478553D01*
X57003041Y-73174390D01*
X57002274Y-73162269D01*
X57000012Y-73000855D01*
X57000000Y-72999117D01*
X57000000Y-72893713D01*
X58649500Y-72893713D01*
X58649500Y-73106287D01*
X58682754Y-73316243D01*
X58745612Y-73509700D01*
X58748444Y-73518414D01*
X58844951Y-73707820D01*
X58969890Y-73879786D01*
X59120213Y-74030109D01*
X59292179Y-74155048D01*
X59292181Y-74155049D01*
X59292184Y-74155051D01*
X59481588Y-74251557D01*
X59683757Y-74317246D01*
X59893713Y-74350500D01*
X59893714Y-74350500D01*
X60106286Y-74350500D01*
X60106287Y-74350500D01*
X60316243Y-74317246D01*
X60518412Y-74251557D01*
X60707816Y-74155051D01*
X60810243Y-74080634D01*
X60879786Y-74030109D01*
X60879788Y-74030106D01*
X60879792Y-74030104D01*
X61030104Y-73879792D01*
X61030106Y-73879788D01*
X61030109Y-73879786D01*
X61155048Y-73707820D01*
X61155047Y-73707820D01*
X61155051Y-73707816D01*
X61251557Y-73518412D01*
X61317246Y-73316243D01*
X61350500Y-73106287D01*
X61350500Y-72893713D01*
X61317246Y-72683757D01*
X61251557Y-72481588D01*
X61155051Y-72292184D01*
X61155049Y-72292181D01*
X61155048Y-72292179D01*
X61030109Y-72120213D01*
X60879786Y-71969890D01*
X60721832Y-71855131D01*
X68019500Y-71855131D01*
X68019500Y-73644856D01*
X68019502Y-73644882D01*
X68022413Y-73669987D01*
X68022415Y-73669991D01*
X68067793Y-73772764D01*
X68067794Y-73772765D01*
X68147235Y-73852206D01*
X68250009Y-73897585D01*
X68275135Y-73900500D01*
X70064864Y-73900499D01*
X70064879Y-73900497D01*
X70064882Y-73900497D01*
X70089987Y-73897586D01*
X70089988Y-73897585D01*
X70089991Y-73897585D01*
X70192765Y-73852206D01*
X70272206Y-73772765D01*
X70317585Y-73669991D01*
X70320500Y-73644865D01*
X70320499Y-72906046D01*
X70340183Y-72839009D01*
X70392987Y-72793254D01*
X70462146Y-72783310D01*
X70525702Y-72812335D01*
X70563476Y-72871113D01*
X70567970Y-72894606D01*
X70572454Y-72942993D01*
X70574244Y-72962310D01*
X70627675Y-73150099D01*
X70632596Y-73167392D01*
X70632596Y-73167394D01*
X70727632Y-73358253D01*
X70856127Y-73528406D01*
X70856128Y-73528407D01*
X71013698Y-73672052D01*
X71194981Y-73784298D01*
X71393802Y-73861321D01*
X71603390Y-73900500D01*
X71603392Y-73900500D01*
X71816608Y-73900500D01*
X71816610Y-73900500D01*
X72026198Y-73861321D01*
X72225019Y-73784298D01*
X72406302Y-73672052D01*
X72563872Y-73528407D01*
X72692366Y-73358255D01*
X72746270Y-73250000D01*
X72787403Y-73167394D01*
X72787403Y-73167393D01*
X72787405Y-73167389D01*
X72845756Y-72962310D01*
X72856529Y-72846047D01*
X72882315Y-72781111D01*
X72924622Y-72750804D01*
X73033130Y-72750804D01*
X73069503Y-72771668D01*
X73101693Y-72833681D01*
X73103470Y-72846047D01*
X73114244Y-72962310D01*
X73167675Y-73150099D01*
X73172596Y-73167392D01*
X73172596Y-73167394D01*
X73267632Y-73358253D01*
X73396127Y-73528406D01*
X73396128Y-73528407D01*
X73553698Y-73672052D01*
X73734981Y-73784298D01*
X73933802Y-73861321D01*
X74143390Y-73900500D01*
X74143392Y-73900500D01*
X74356608Y-73900500D01*
X74356610Y-73900500D01*
X74566198Y-73861321D01*
X74765019Y-73784298D01*
X74946302Y-73672052D01*
X75103872Y-73528407D01*
X75232366Y-73358255D01*
X75299325Y-73223781D01*
X75346825Y-73172548D01*
X75414488Y-73155126D01*
X75480828Y-73177051D01*
X75522705Y-73226651D01*
X75616399Y-73427578D01*
X75751894Y-73621082D01*
X75918917Y-73788105D01*
X76112421Y-73923600D01*
X76326507Y-74023429D01*
X76326516Y-74023433D01*
X76540000Y-74080634D01*
X76540000Y-73183012D01*
X76597007Y-73215925D01*
X76724174Y-73250000D01*
X76855826Y-73250000D01*
X76982993Y-73215925D01*
X77040000Y-73183012D01*
X77040000Y-74080633D01*
X77253483Y-74023433D01*
X77253492Y-74023429D01*
X77467578Y-73923600D01*
X77661082Y-73788105D01*
X77828105Y-73621082D01*
X77963600Y-73427578D01*
X78063429Y-73213492D01*
X78063432Y-73213486D01*
X78120636Y-73000000D01*
X77223012Y-73000000D01*
X77255925Y-72942993D01*
X77269130Y-72893713D01*
X93649500Y-72893713D01*
X93649500Y-73106287D01*
X93682754Y-73316243D01*
X93745612Y-73509700D01*
X93748444Y-73518414D01*
X93844951Y-73707820D01*
X93969890Y-73879786D01*
X94120213Y-74030109D01*
X94292179Y-74155048D01*
X94292181Y-74155049D01*
X94292184Y-74155051D01*
X94481588Y-74251557D01*
X94683757Y-74317246D01*
X94893713Y-74350500D01*
X94893714Y-74350500D01*
X95106286Y-74350500D01*
X95106287Y-74350500D01*
X95316243Y-74317246D01*
X95518412Y-74251557D01*
X95707816Y-74155051D01*
X95810243Y-74080634D01*
X95879786Y-74030109D01*
X95879788Y-74030106D01*
X95879792Y-74030104D01*
X96030104Y-73879792D01*
X96030106Y-73879788D01*
X96030109Y-73879786D01*
X96155048Y-73707820D01*
X96155047Y-73707820D01*
X96155051Y-73707816D01*
X96251557Y-73518412D01*
X96317246Y-73316243D01*
X96350500Y-73106287D01*
X96350500Y-72893713D01*
X96317246Y-72683757D01*
X96251557Y-72481588D01*
X96155051Y-72292184D01*
X96155049Y-72292181D01*
X96155048Y-72292179D01*
X96030109Y-72120213D01*
X95879786Y-71969890D01*
X95707820Y-71844951D01*
X95518414Y-71748444D01*
X95518413Y-71748443D01*
X95518412Y-71748443D01*
X95316243Y-71682754D01*
X95316241Y-71682753D01*
X95316240Y-71682753D01*
X95154957Y-71657208D01*
X95106287Y-71649500D01*
X94893713Y-71649500D01*
X94845042Y-71657208D01*
X94683760Y-71682753D01*
X94481585Y-71748444D01*
X94292179Y-71844951D01*
X94120213Y-71969890D01*
X93969890Y-72120213D01*
X93844951Y-72292179D01*
X93748444Y-72481585D01*
X93682753Y-72683760D01*
X93649500Y-72893713D01*
X77269130Y-72893713D01*
X77290000Y-72815826D01*
X77290000Y-72684174D01*
X77255925Y-72557007D01*
X77223012Y-72500000D01*
X78120636Y-72500000D01*
X78120635Y-72499999D01*
X78063432Y-72286513D01*
X78063429Y-72286507D01*
X77963600Y-72072422D01*
X77963599Y-72072420D01*
X77828113Y-71878926D01*
X77828108Y-71878920D01*
X77661082Y-71711894D01*
X77467578Y-71576399D01*
X77253492Y-71476570D01*
X77253486Y-71476567D01*
X77040000Y-71419364D01*
X77040000Y-72316988D01*
X76982993Y-72284075D01*
X76855826Y-72250000D01*
X76724174Y-72250000D01*
X76597007Y-72284075D01*
X76540000Y-72316988D01*
X76540000Y-71419364D01*
X76539999Y-71419364D01*
X76326513Y-71476567D01*
X76326507Y-71476570D01*
X76112422Y-71576399D01*
X76112420Y-71576400D01*
X75918926Y-71711886D01*
X75918920Y-71711891D01*
X75751891Y-71878920D01*
X75751886Y-71878926D01*
X75616400Y-72072420D01*
X75616399Y-72072422D01*
X75522705Y-72273348D01*
X75476532Y-72325787D01*
X75409339Y-72344939D01*
X75342457Y-72324723D01*
X75299324Y-72276216D01*
X75232366Y-72141745D01*
X75103872Y-71971593D01*
X74946302Y-71827948D01*
X74765019Y-71715702D01*
X74765017Y-71715701D01*
X74594130Y-71649500D01*
X74566198Y-71638679D01*
X74356610Y-71599500D01*
X74143390Y-71599500D01*
X73933802Y-71638679D01*
X73933799Y-71638679D01*
X73933799Y-71638680D01*
X73734982Y-71715701D01*
X73734980Y-71715702D01*
X73553699Y-71827947D01*
X73396127Y-71971593D01*
X73267632Y-72141746D01*
X73172596Y-72332605D01*
X73172596Y-72332607D01*
X73114244Y-72537689D01*
X73103471Y-72653951D01*
X73077685Y-72718888D01*
X73033130Y-72750804D01*
X72924622Y-72750804D01*
X72926869Y-72749194D01*
X72890497Y-72728331D01*
X72858307Y-72666318D01*
X72856529Y-72653951D01*
X72853175Y-72617759D01*
X72845756Y-72537690D01*
X72787405Y-72332611D01*
X72787403Y-72332606D01*
X72787403Y-72332605D01*
X72692367Y-72141746D01*
X72563872Y-71971593D01*
X72562004Y-71969890D01*
X72406302Y-71827948D01*
X72225019Y-71715702D01*
X72225017Y-71715701D01*
X72054130Y-71649500D01*
X72026198Y-71638679D01*
X71816610Y-71599500D01*
X71603390Y-71599500D01*
X71393802Y-71638679D01*
X71393799Y-71638679D01*
X71393799Y-71638680D01*
X71194982Y-71715701D01*
X71194980Y-71715702D01*
X71013699Y-71827947D01*
X70856127Y-71971593D01*
X70727632Y-72141746D01*
X70632596Y-72332605D01*
X70632596Y-72332607D01*
X70574244Y-72537689D01*
X70567970Y-72605394D01*
X70542183Y-72670331D01*
X70485383Y-72711018D01*
X70415602Y-72714538D01*
X70354995Y-72679772D01*
X70322806Y-72617759D01*
X70320499Y-72593952D01*
X70320499Y-71855143D01*
X70320499Y-71855136D01*
X70319318Y-71844949D01*
X70317586Y-71830012D01*
X70317585Y-71830010D01*
X70317585Y-71830009D01*
X70272206Y-71727235D01*
X70192765Y-71647794D01*
X70172124Y-71638680D01*
X70089992Y-71602415D01*
X70064865Y-71599500D01*
X68275143Y-71599500D01*
X68275117Y-71599502D01*
X68250012Y-71602413D01*
X68250008Y-71602415D01*
X68147235Y-71647793D01*
X68067794Y-71727234D01*
X68022415Y-71830006D01*
X68022415Y-71830008D01*
X68019500Y-71855131D01*
X60721832Y-71855131D01*
X60707820Y-71844951D01*
X60518414Y-71748444D01*
X60518413Y-71748443D01*
X60518412Y-71748443D01*
X60316243Y-71682754D01*
X60316241Y-71682753D01*
X60316240Y-71682753D01*
X60154957Y-71657208D01*
X60106287Y-71649500D01*
X59893713Y-71649500D01*
X59845042Y-71657208D01*
X59683760Y-71682753D01*
X59481585Y-71748444D01*
X59292179Y-71844951D01*
X59120213Y-71969890D01*
X58969890Y-72120213D01*
X58844951Y-72292179D01*
X58748444Y-72481585D01*
X58682753Y-72683760D01*
X58649500Y-72893713D01*
X57000000Y-72893713D01*
X57000000Y-66750000D01*
X71784355Y-66750000D01*
X71804859Y-66918869D01*
X71804860Y-66918874D01*
X71865182Y-67077931D01*
X71927475Y-67168177D01*
X71961817Y-67217929D01*
X72055021Y-67300500D01*
X72089150Y-67330736D01*
X72239773Y-67409789D01*
X72239775Y-67409790D01*
X72404944Y-67450500D01*
X72575056Y-67450500D01*
X72740225Y-67409790D01*
X72829547Y-67362909D01*
X72890845Y-67330738D01*
X72890846Y-67330736D01*
X72890852Y-67330734D01*
X72890856Y-67330730D01*
X72897020Y-67326476D01*
X72897960Y-67327839D01*
X72953011Y-67301963D01*
X72972006Y-67300500D01*
X73517994Y-67300500D01*
X73585033Y-67320185D01*
X73597074Y-67329302D01*
X73599154Y-67330738D01*
X73749773Y-67409789D01*
X73749775Y-67409790D01*
X73914944Y-67450500D01*
X74085056Y-67450500D01*
X74250225Y-67409790D01*
X74329692Y-67368081D01*
X74400849Y-67330736D01*
X74400850Y-67330734D01*
X74400852Y-67330734D01*
X74528183Y-67217929D01*
X74624818Y-67077930D01*
X74654373Y-67000000D01*
X75054355Y-67000000D01*
X75074859Y-67168869D01*
X75074860Y-67168874D01*
X75135182Y-67327931D01*
X75137120Y-67330738D01*
X75231817Y-67467929D01*
X75325021Y-67550500D01*
X75359150Y-67580736D01*
X75509773Y-67659789D01*
X75509775Y-67659790D01*
X75674944Y-67700500D01*
X75845056Y-67700500D01*
X76010225Y-67659790D01*
X76099547Y-67612909D01*
X76160845Y-67580738D01*
X76160846Y-67580736D01*
X76160852Y-67580734D01*
X76160856Y-67580730D01*
X76167020Y-67576476D01*
X76167960Y-67577839D01*
X76223011Y-67551963D01*
X76242006Y-67550500D01*
X76777994Y-67550500D01*
X76845033Y-67570185D01*
X76857074Y-67579302D01*
X76859154Y-67580738D01*
X77009773Y-67659789D01*
X77009775Y-67659790D01*
X77174944Y-67700500D01*
X77345056Y-67700500D01*
X77510225Y-67659790D01*
X77589692Y-67618081D01*
X77660849Y-67580736D01*
X77660850Y-67580734D01*
X77660852Y-67580734D01*
X77788183Y-67467929D01*
X77884818Y-67327930D01*
X77945140Y-67168872D01*
X77965645Y-67000000D01*
X77945140Y-66831128D01*
X77884818Y-66672070D01*
X77788183Y-66532071D01*
X77693316Y-66448026D01*
X77660849Y-66419263D01*
X77510226Y-66340210D01*
X77345056Y-66299500D01*
X77174944Y-66299500D01*
X77009773Y-66340210D01*
X76859154Y-66419261D01*
X76852980Y-66423524D01*
X76852039Y-66422160D01*
X76796989Y-66448037D01*
X76777994Y-66449500D01*
X76242006Y-66449500D01*
X76174967Y-66429815D01*
X76162925Y-66420697D01*
X76160845Y-66419261D01*
X76010226Y-66340210D01*
X75845056Y-66299500D01*
X75674944Y-66299500D01*
X75509773Y-66340210D01*
X75359150Y-66419263D01*
X75231816Y-66532072D01*
X75135182Y-66672068D01*
X75074860Y-66831125D01*
X75074859Y-66831130D01*
X75054355Y-67000000D01*
X74654373Y-67000000D01*
X74685140Y-66918872D01*
X74705645Y-66750000D01*
X74685140Y-66581128D01*
X74624818Y-66422070D01*
X74623870Y-66420697D01*
X74590476Y-66372318D01*
X74528183Y-66282071D01*
X74433316Y-66198026D01*
X74400849Y-66169263D01*
X74250226Y-66090210D01*
X74085056Y-66049500D01*
X73914944Y-66049500D01*
X73749773Y-66090210D01*
X73599154Y-66169261D01*
X73592980Y-66173524D01*
X73592039Y-66172160D01*
X73536989Y-66198037D01*
X73517994Y-66199500D01*
X72972006Y-66199500D01*
X72904967Y-66179815D01*
X72892925Y-66170697D01*
X72890845Y-66169261D01*
X72740226Y-66090210D01*
X72575056Y-66049500D01*
X72404944Y-66049500D01*
X72239773Y-66090210D01*
X72089150Y-66169263D01*
X71961816Y-66282072D01*
X71865182Y-66422068D01*
X71804860Y-66581125D01*
X71804859Y-66581130D01*
X71784355Y-66750000D01*
X57000000Y-66750000D01*
X57000000Y-58878992D01*
X90594500Y-58878992D01*
X90594500Y-59081007D01*
X90633907Y-59279119D01*
X90633909Y-59279127D01*
X90711212Y-59465752D01*
X90711217Y-59465762D01*
X90823441Y-59633718D01*
X90966281Y-59776558D01*
X91134237Y-59888782D01*
X91134241Y-59888784D01*
X91134244Y-59888786D01*
X91320873Y-59966091D01*
X91518992Y-60005499D01*
X91518996Y-60005500D01*
X91518997Y-60005500D01*
X92271004Y-60005500D01*
X92271005Y-60005499D01*
X92469127Y-59966091D01*
X92655756Y-59888786D01*
X92823718Y-59776558D01*
X92966558Y-59633718D01*
X93078786Y-59465756D01*
X93156091Y-59279127D01*
X93195500Y-59081003D01*
X93195500Y-59043766D01*
X94494500Y-59043766D01*
X94494500Y-59216233D01*
X94528143Y-59385366D01*
X94528146Y-59385378D01*
X94594138Y-59544698D01*
X94594145Y-59544711D01*
X94689954Y-59688098D01*
X94689957Y-59688102D01*
X94811897Y-59810042D01*
X94811901Y-59810045D01*
X94955288Y-59905854D01*
X94955301Y-59905861D01*
X95100708Y-59966090D01*
X95114626Y-59971855D01*
X95283766Y-60005499D01*
X95283769Y-60005500D01*
X95283771Y-60005500D01*
X96106231Y-60005500D01*
X96106232Y-60005499D01*
X96275374Y-59971855D01*
X96434705Y-59905858D01*
X96578099Y-59810045D01*
X96700045Y-59688099D01*
X96795858Y-59544705D01*
X96861855Y-59385374D01*
X96895500Y-59216229D01*
X96895500Y-59043771D01*
X96895500Y-59043768D01*
X96895499Y-59043766D01*
X96861856Y-58874633D01*
X96861855Y-58874626D01*
X96861853Y-58874621D01*
X96795861Y-58715301D01*
X96795854Y-58715288D01*
X96700045Y-58571901D01*
X96700042Y-58571897D01*
X96578102Y-58449957D01*
X96578098Y-58449954D01*
X96434711Y-58354145D01*
X96434698Y-58354138D01*
X96275378Y-58288146D01*
X96275366Y-58288143D01*
X96106232Y-58254500D01*
X96106229Y-58254500D01*
X95283771Y-58254500D01*
X95283768Y-58254500D01*
X95114633Y-58288143D01*
X95114621Y-58288146D01*
X94955301Y-58354138D01*
X94955288Y-58354145D01*
X94811901Y-58449954D01*
X94811897Y-58449957D01*
X94689957Y-58571897D01*
X94689954Y-58571901D01*
X94594145Y-58715288D01*
X94594138Y-58715301D01*
X94528146Y-58874621D01*
X94528143Y-58874633D01*
X94494500Y-59043766D01*
X93195500Y-59043766D01*
X93195500Y-58878997D01*
X93156091Y-58680873D01*
X93114932Y-58581507D01*
X93107463Y-58512037D01*
X93138738Y-58449558D01*
X93189060Y-58419700D01*
X93188207Y-58417452D01*
X93195222Y-58414790D01*
X93195225Y-58414790D01*
X93345852Y-58335734D01*
X93473183Y-58222929D01*
X93569818Y-58082930D01*
X93630140Y-57923872D01*
X93650645Y-57755000D01*
X93630140Y-57586128D01*
X93569818Y-57427070D01*
X93473183Y-57287071D01*
X93345852Y-57174266D01*
X93345849Y-57174263D01*
X93195226Y-57095210D01*
X93030056Y-57054500D01*
X92859944Y-57054500D01*
X92694773Y-57095210D01*
X92544150Y-57174263D01*
X92416816Y-57287072D01*
X92320182Y-57427068D01*
X92259860Y-57586125D01*
X92259859Y-57586130D01*
X92239355Y-57754999D01*
X92246708Y-57815553D01*
X92235248Y-57884476D01*
X92188344Y-57936263D01*
X92123612Y-57954500D01*
X91518992Y-57954500D01*
X91320880Y-57993907D01*
X91320872Y-57993909D01*
X91134247Y-58071212D01*
X91134237Y-58071217D01*
X90966281Y-58183441D01*
X90823441Y-58326281D01*
X90711217Y-58494237D01*
X90711212Y-58494247D01*
X90633909Y-58680872D01*
X90633907Y-58680880D01*
X90594500Y-58878992D01*
X57000000Y-58878992D01*
X57000000Y-51818995D01*
X58444499Y-51818995D01*
X58471418Y-51954322D01*
X58471421Y-51954332D01*
X58524221Y-52081804D01*
X58524228Y-52081817D01*
X58600885Y-52196541D01*
X58600888Y-52196545D01*
X58698454Y-52294111D01*
X58698458Y-52294114D01*
X58813182Y-52370771D01*
X58813195Y-52370778D01*
X58940667Y-52423578D01*
X58940672Y-52423580D01*
X58940676Y-52423580D01*
X58940677Y-52423581D01*
X59076004Y-52450500D01*
X59076007Y-52450500D01*
X59213995Y-52450500D01*
X59305041Y-52432389D01*
X59349328Y-52423580D01*
X59476811Y-52370775D01*
X59591542Y-52294114D01*
X59689114Y-52196542D01*
X59765775Y-52081811D01*
X59818580Y-51954328D01*
X59827389Y-51910041D01*
X59845500Y-51818995D01*
X59845500Y-51681004D01*
X59818581Y-51545677D01*
X59818580Y-51545676D01*
X59818580Y-51545672D01*
X59818578Y-51545667D01*
X59770250Y-51428992D01*
X90594500Y-51428992D01*
X90594500Y-51631007D01*
X90633907Y-51829119D01*
X90633909Y-51829127D01*
X90711212Y-52015752D01*
X90711217Y-52015762D01*
X90823441Y-52183718D01*
X90966281Y-52326558D01*
X91134237Y-52438782D01*
X91134241Y-52438784D01*
X91134244Y-52438786D01*
X91320873Y-52516091D01*
X91518484Y-52555398D01*
X91518992Y-52555499D01*
X91518996Y-52555500D01*
X92123612Y-52555500D01*
X92190651Y-52575185D01*
X92236406Y-52627989D01*
X92246708Y-52694447D01*
X92239355Y-52755000D01*
X92259859Y-52923869D01*
X92259860Y-52923874D01*
X92320182Y-53082931D01*
X92382475Y-53173177D01*
X92416817Y-53222929D01*
X92522505Y-53316560D01*
X92544150Y-53335736D01*
X92694773Y-53414789D01*
X92694775Y-53414790D01*
X92859944Y-53455500D01*
X93030056Y-53455500D01*
X93195225Y-53414790D01*
X93274692Y-53373081D01*
X93345849Y-53335736D01*
X93345850Y-53335734D01*
X93345852Y-53335734D01*
X93473183Y-53222929D01*
X93569818Y-53082930D01*
X93630140Y-52923872D01*
X93650645Y-52755000D01*
X93630140Y-52586128D01*
X93618524Y-52555500D01*
X93578704Y-52450500D01*
X93569818Y-52427070D01*
X93473183Y-52287071D01*
X93345852Y-52174266D01*
X93345849Y-52174263D01*
X93195225Y-52095209D01*
X93188210Y-52092549D01*
X93189131Y-52090119D01*
X93139438Y-52061186D01*
X93107649Y-51998967D01*
X93114544Y-51929439D01*
X93114932Y-51928492D01*
X93156091Y-51829127D01*
X93195500Y-51631003D01*
X93195500Y-51428997D01*
X93168601Y-51293766D01*
X94494500Y-51293766D01*
X94494500Y-51466233D01*
X94528143Y-51635366D01*
X94528146Y-51635378D01*
X94594138Y-51794698D01*
X94594145Y-51794711D01*
X94689954Y-51938098D01*
X94689957Y-51938102D01*
X94811897Y-52060042D01*
X94811901Y-52060045D01*
X94955288Y-52155854D01*
X94955301Y-52155861D01*
X95053522Y-52196545D01*
X95114626Y-52221855D01*
X95283766Y-52255499D01*
X95283769Y-52255500D01*
X95283771Y-52255500D01*
X96106231Y-52255500D01*
X96106232Y-52255499D01*
X96275374Y-52221855D01*
X96434705Y-52155858D01*
X96578099Y-52060045D01*
X96700045Y-51938099D01*
X96795858Y-51794705D01*
X96861855Y-51635374D01*
X96895500Y-51466229D01*
X96895500Y-51293771D01*
X96895500Y-51293768D01*
X96895499Y-51293766D01*
X96882989Y-51230873D01*
X96861855Y-51124626D01*
X96841888Y-51076421D01*
X96795861Y-50965301D01*
X96795854Y-50965288D01*
X96700045Y-50821901D01*
X96700042Y-50821897D01*
X96578102Y-50699957D01*
X96578098Y-50699954D01*
X96434711Y-50604145D01*
X96434698Y-50604138D01*
X96275378Y-50538146D01*
X96275366Y-50538143D01*
X96106232Y-50504500D01*
X96106229Y-50504500D01*
X95283771Y-50504500D01*
X95283768Y-50504500D01*
X95114633Y-50538143D01*
X95114621Y-50538146D01*
X94955301Y-50604138D01*
X94955288Y-50604145D01*
X94811901Y-50699954D01*
X94811897Y-50699957D01*
X94689957Y-50821897D01*
X94689954Y-50821901D01*
X94594145Y-50965288D01*
X94594138Y-50965301D01*
X94528146Y-51124621D01*
X94528143Y-51124633D01*
X94494500Y-51293766D01*
X93168601Y-51293766D01*
X93156091Y-51230873D01*
X93078786Y-51044244D01*
X93078784Y-51044241D01*
X93078782Y-51044237D01*
X92966558Y-50876281D01*
X92823718Y-50733441D01*
X92655762Y-50621217D01*
X92655752Y-50621212D01*
X92469127Y-50543909D01*
X92469119Y-50543907D01*
X92271007Y-50504500D01*
X92271003Y-50504500D01*
X91518997Y-50504500D01*
X91518992Y-50504500D01*
X91320880Y-50543907D01*
X91320872Y-50543909D01*
X91134247Y-50621212D01*
X91134237Y-50621217D01*
X90966281Y-50733441D01*
X90823441Y-50876281D01*
X90711217Y-51044237D01*
X90711212Y-51044247D01*
X90633909Y-51230872D01*
X90633907Y-51230880D01*
X90594500Y-51428992D01*
X59770250Y-51428992D01*
X59765778Y-51418195D01*
X59765771Y-51418182D01*
X59689114Y-51303458D01*
X59689111Y-51303454D01*
X59591545Y-51205888D01*
X59591541Y-51205885D01*
X59476817Y-51129228D01*
X59476804Y-51129221D01*
X59349332Y-51076421D01*
X59349322Y-51076418D01*
X59213995Y-51049500D01*
X59213993Y-51049500D01*
X59076007Y-51049500D01*
X59076005Y-51049500D01*
X58940677Y-51076418D01*
X58940667Y-51076421D01*
X58813195Y-51129221D01*
X58813182Y-51129228D01*
X58698458Y-51205885D01*
X58698454Y-51205888D01*
X58600888Y-51303454D01*
X58600885Y-51303458D01*
X58524228Y-51418182D01*
X58524221Y-51418195D01*
X58471421Y-51545667D01*
X58471418Y-51545677D01*
X58444500Y-51681004D01*
X58444500Y-51681007D01*
X58444500Y-51818993D01*
X58444500Y-51818995D01*
X58444499Y-51818995D01*
X57000000Y-51818995D01*
X57000000Y-48818995D01*
X58444499Y-48818995D01*
X58471418Y-48954322D01*
X58471421Y-48954332D01*
X58524221Y-49081804D01*
X58524228Y-49081817D01*
X58600885Y-49196541D01*
X58600888Y-49196545D01*
X58698454Y-49294111D01*
X58698458Y-49294114D01*
X58813182Y-49370771D01*
X58813195Y-49370778D01*
X58940667Y-49423578D01*
X58940672Y-49423580D01*
X58940676Y-49423580D01*
X58940677Y-49423581D01*
X59076004Y-49450500D01*
X59076007Y-49450500D01*
X59213995Y-49450500D01*
X59305041Y-49432389D01*
X59349328Y-49423580D01*
X59476811Y-49370775D01*
X59591542Y-49294114D01*
X59689114Y-49196542D01*
X59765775Y-49081811D01*
X59818580Y-48954328D01*
X59845500Y-48818993D01*
X59845500Y-48681007D01*
X59845500Y-48681004D01*
X59818581Y-48545677D01*
X59818580Y-48545676D01*
X59818580Y-48545672D01*
X59818578Y-48545667D01*
X59765778Y-48418195D01*
X59765771Y-48418182D01*
X59689114Y-48303458D01*
X59689111Y-48303454D01*
X59591545Y-48205888D01*
X59591541Y-48205885D01*
X59476817Y-48129228D01*
X59476804Y-48129221D01*
X59349332Y-48076421D01*
X59349322Y-48076418D01*
X59213995Y-48049500D01*
X59213993Y-48049500D01*
X59076007Y-48049500D01*
X59076005Y-48049500D01*
X58940677Y-48076418D01*
X58940667Y-48076421D01*
X58813195Y-48129221D01*
X58813182Y-48129228D01*
X58698458Y-48205885D01*
X58698454Y-48205888D01*
X58600888Y-48303454D01*
X58600885Y-48303458D01*
X58524228Y-48418182D01*
X58524221Y-48418195D01*
X58471421Y-48545667D01*
X58471418Y-48545677D01*
X58444500Y-48681004D01*
X58444500Y-48681007D01*
X58444500Y-48818993D01*
X58444500Y-48818995D01*
X58444499Y-48818995D01*
X57000000Y-48818995D01*
X57000000Y-43000882D01*
X57000012Y-42999144D01*
X57001490Y-42893713D01*
X58649500Y-42893713D01*
X58649500Y-43106286D01*
X58677878Y-43285461D01*
X58682754Y-43316243D01*
X58730214Y-43462310D01*
X58748444Y-43518414D01*
X58844951Y-43707820D01*
X58969890Y-43879786D01*
X59120213Y-44030109D01*
X59292179Y-44155048D01*
X59292181Y-44155049D01*
X59292184Y-44155051D01*
X59481588Y-44251557D01*
X59683757Y-44317246D01*
X59893713Y-44350500D01*
X59893714Y-44350500D01*
X60106286Y-44350500D01*
X60106287Y-44350500D01*
X60316243Y-44317246D01*
X60518412Y-44251557D01*
X60707816Y-44155051D01*
X60754571Y-44121082D01*
X60879786Y-44030109D01*
X60879788Y-44030106D01*
X60879792Y-44030104D01*
X61030104Y-43879792D01*
X61030106Y-43879788D01*
X61030109Y-43879786D01*
X61143449Y-43723785D01*
X61155051Y-43707816D01*
X61251557Y-43518412D01*
X61317246Y-43316243D01*
X61350500Y-43106287D01*
X61350500Y-42999999D01*
X65339364Y-42999999D01*
X65339364Y-43000000D01*
X66236988Y-43000000D01*
X66204075Y-43057007D01*
X66170000Y-43184174D01*
X66170000Y-43315826D01*
X66204075Y-43442993D01*
X66236988Y-43500000D01*
X65339364Y-43500000D01*
X65396567Y-43713486D01*
X65396570Y-43713492D01*
X65496399Y-43927578D01*
X65631894Y-44121082D01*
X65798917Y-44288105D01*
X65992421Y-44423600D01*
X66206507Y-44523429D01*
X66206516Y-44523433D01*
X66420000Y-44580634D01*
X66420000Y-43683012D01*
X66477007Y-43715925D01*
X66604174Y-43750000D01*
X66735826Y-43750000D01*
X66862993Y-43715925D01*
X66920000Y-43683012D01*
X66920000Y-44580633D01*
X67133483Y-44523433D01*
X67133492Y-44523429D01*
X67347578Y-44423600D01*
X67541082Y-44288105D01*
X67708105Y-44121082D01*
X67843600Y-43927578D01*
X67937294Y-43726651D01*
X67983466Y-43674212D01*
X68050660Y-43655060D01*
X68117541Y-43675276D01*
X68160676Y-43723785D01*
X68227632Y-43858253D01*
X68356127Y-44028406D01*
X68356128Y-44028407D01*
X68513698Y-44172052D01*
X68694981Y-44284298D01*
X68893802Y-44361321D01*
X69103390Y-44400500D01*
X69103392Y-44400500D01*
X69316608Y-44400500D01*
X69316610Y-44400500D01*
X69526198Y-44361321D01*
X69725019Y-44284298D01*
X69906302Y-44172052D01*
X70063872Y-44028407D01*
X70192366Y-43858255D01*
X70246270Y-43750000D01*
X70287403Y-43667394D01*
X70287403Y-43667393D01*
X70287405Y-43667389D01*
X70345756Y-43462310D01*
X70356529Y-43346047D01*
X70382315Y-43281111D01*
X70424622Y-43250804D01*
X70533130Y-43250804D01*
X70569503Y-43271668D01*
X70601693Y-43333681D01*
X70603470Y-43346047D01*
X70614244Y-43462310D01*
X70667675Y-43650099D01*
X70672596Y-43667392D01*
X70672596Y-43667394D01*
X70767632Y-43858253D01*
X70896127Y-44028406D01*
X70896128Y-44028407D01*
X71053698Y-44172052D01*
X71234981Y-44284298D01*
X71433802Y-44361321D01*
X71643390Y-44400500D01*
X71643392Y-44400500D01*
X71856608Y-44400500D01*
X71856610Y-44400500D01*
X72066198Y-44361321D01*
X72265019Y-44284298D01*
X72446302Y-44172052D01*
X72603872Y-44028407D01*
X72732366Y-43858255D01*
X72786270Y-43750000D01*
X72827403Y-43667394D01*
X72827403Y-43667393D01*
X72827405Y-43667389D01*
X72885756Y-43462310D01*
X72892029Y-43394605D01*
X72917814Y-43329669D01*
X72974614Y-43288981D01*
X73044395Y-43285461D01*
X73105002Y-43320225D01*
X73137193Y-43382238D01*
X73139500Y-43406047D01*
X73139500Y-44144856D01*
X73139502Y-44144882D01*
X73142413Y-44169987D01*
X73142415Y-44169991D01*
X73187793Y-44272764D01*
X73187794Y-44272765D01*
X73267235Y-44352206D01*
X73370009Y-44397585D01*
X73395135Y-44400500D01*
X75184864Y-44400499D01*
X75184879Y-44400497D01*
X75184882Y-44400497D01*
X75209987Y-44397586D01*
X75209988Y-44397585D01*
X75209991Y-44397585D01*
X75312765Y-44352206D01*
X75392206Y-44272765D01*
X75437585Y-44169991D01*
X75440500Y-44144865D01*
X75440499Y-42999999D01*
X78099364Y-42999999D01*
X78099364Y-43000000D01*
X78996988Y-43000000D01*
X78964075Y-43057007D01*
X78930000Y-43184174D01*
X78930000Y-43315826D01*
X78964075Y-43442993D01*
X78996988Y-43500000D01*
X78099364Y-43500000D01*
X78156567Y-43713486D01*
X78156570Y-43713492D01*
X78256399Y-43927578D01*
X78391894Y-44121082D01*
X78558917Y-44288105D01*
X78752421Y-44423600D01*
X78966507Y-44523429D01*
X78966516Y-44523433D01*
X79180000Y-44580634D01*
X79180000Y-43683012D01*
X79237007Y-43715925D01*
X79364174Y-43750000D01*
X79495826Y-43750000D01*
X79622993Y-43715925D01*
X79680000Y-43683012D01*
X79680000Y-44580633D01*
X79893483Y-44523433D01*
X79893492Y-44523429D01*
X80107578Y-44423600D01*
X80301082Y-44288105D01*
X80468105Y-44121082D01*
X80603600Y-43927578D01*
X80697294Y-43726651D01*
X80743466Y-43674212D01*
X80810660Y-43655060D01*
X80877541Y-43675276D01*
X80920676Y-43723785D01*
X80987632Y-43858253D01*
X81116127Y-44028406D01*
X81116128Y-44028407D01*
X81273698Y-44172052D01*
X81454981Y-44284298D01*
X81653802Y-44361321D01*
X81863390Y-44400500D01*
X81863392Y-44400500D01*
X82076608Y-44400500D01*
X82076610Y-44400500D01*
X82286198Y-44361321D01*
X82485019Y-44284298D01*
X82666302Y-44172052D01*
X82823872Y-44028407D01*
X82952366Y-43858255D01*
X83006270Y-43750000D01*
X83047403Y-43667394D01*
X83047403Y-43667393D01*
X83047405Y-43667389D01*
X83105756Y-43462310D01*
X83116529Y-43346047D01*
X83142315Y-43281111D01*
X83184622Y-43250804D01*
X83293130Y-43250804D01*
X83329503Y-43271668D01*
X83361693Y-43333681D01*
X83363470Y-43346047D01*
X83374244Y-43462310D01*
X83427675Y-43650099D01*
X83432596Y-43667392D01*
X83432596Y-43667394D01*
X83527632Y-43858253D01*
X83656127Y-44028406D01*
X83656128Y-44028407D01*
X83813698Y-44172052D01*
X83994981Y-44284298D01*
X84193802Y-44361321D01*
X84403390Y-44400500D01*
X84403392Y-44400500D01*
X84616608Y-44400500D01*
X84616610Y-44400500D01*
X84826198Y-44361321D01*
X85025019Y-44284298D01*
X85206302Y-44172052D01*
X85363872Y-44028407D01*
X85492366Y-43858255D01*
X85546270Y-43750000D01*
X85587403Y-43667394D01*
X85587403Y-43667393D01*
X85587405Y-43667389D01*
X85645756Y-43462310D01*
X85652029Y-43394605D01*
X85677814Y-43329669D01*
X85734614Y-43288981D01*
X85804395Y-43285461D01*
X85865002Y-43320225D01*
X85897193Y-43382238D01*
X85899500Y-43406047D01*
X85899500Y-44144856D01*
X85899502Y-44144882D01*
X85902413Y-44169987D01*
X85902415Y-44169991D01*
X85947793Y-44272764D01*
X85947794Y-44272765D01*
X86027235Y-44352206D01*
X86130009Y-44397585D01*
X86155135Y-44400500D01*
X87944864Y-44400499D01*
X87944879Y-44400497D01*
X87944882Y-44400497D01*
X87969987Y-44397586D01*
X87969988Y-44397585D01*
X87969991Y-44397585D01*
X88072765Y-44352206D01*
X88152206Y-44272765D01*
X88197585Y-44169991D01*
X88200500Y-44144865D01*
X88200499Y-42893713D01*
X93649500Y-42893713D01*
X93649500Y-43106286D01*
X93677878Y-43285461D01*
X93682754Y-43316243D01*
X93730214Y-43462310D01*
X93748444Y-43518414D01*
X93844951Y-43707820D01*
X93969890Y-43879786D01*
X94120213Y-44030109D01*
X94292179Y-44155048D01*
X94292181Y-44155049D01*
X94292184Y-44155051D01*
X94481588Y-44251557D01*
X94683757Y-44317246D01*
X94893713Y-44350500D01*
X94893714Y-44350500D01*
X95106286Y-44350500D01*
X95106287Y-44350500D01*
X95316243Y-44317246D01*
X95518412Y-44251557D01*
X95707816Y-44155051D01*
X95754571Y-44121082D01*
X95879786Y-44030109D01*
X95879788Y-44030106D01*
X95879792Y-44030104D01*
X96030104Y-43879792D01*
X96030106Y-43879788D01*
X96030109Y-43879786D01*
X96143449Y-43723785D01*
X96155051Y-43707816D01*
X96251557Y-43518412D01*
X96317246Y-43316243D01*
X96350500Y-43106287D01*
X96350500Y-42893713D01*
X96317246Y-42683757D01*
X96251557Y-42481588D01*
X96155051Y-42292184D01*
X96155049Y-42292181D01*
X96155048Y-42292179D01*
X96030109Y-42120213D01*
X95879786Y-41969890D01*
X95707820Y-41844951D01*
X95518414Y-41748444D01*
X95518413Y-41748443D01*
X95518412Y-41748443D01*
X95316243Y-41682754D01*
X95316241Y-41682753D01*
X95316240Y-41682753D01*
X95154957Y-41657208D01*
X95106287Y-41649500D01*
X94893713Y-41649500D01*
X94845042Y-41657208D01*
X94683760Y-41682753D01*
X94481585Y-41748444D01*
X94292179Y-41844951D01*
X94120213Y-41969890D01*
X93969890Y-42120213D01*
X93844951Y-42292179D01*
X93748444Y-42481585D01*
X93682753Y-42683760D01*
X93649500Y-42893713D01*
X88200499Y-42893713D01*
X88200499Y-42355136D01*
X88200497Y-42355117D01*
X88197586Y-42330012D01*
X88197585Y-42330010D01*
X88197585Y-42330009D01*
X88152206Y-42227235D01*
X88072765Y-42147794D01*
X88052124Y-42138680D01*
X87969992Y-42102415D01*
X87944865Y-42099500D01*
X86155143Y-42099500D01*
X86155117Y-42099502D01*
X86130012Y-42102413D01*
X86130008Y-42102415D01*
X86027235Y-42147793D01*
X85947794Y-42227234D01*
X85902415Y-42330006D01*
X85902415Y-42330008D01*
X85899500Y-42355131D01*
X85899500Y-43093951D01*
X85879815Y-43160990D01*
X85827011Y-43206745D01*
X85757853Y-43216689D01*
X85694297Y-43187664D01*
X85656523Y-43128886D01*
X85652029Y-43105391D01*
X85645756Y-43037689D01*
X85604790Y-42893713D01*
X85587405Y-42832611D01*
X85587403Y-42832606D01*
X85587403Y-42832605D01*
X85492367Y-42641746D01*
X85363872Y-42471593D01*
X85206302Y-42327948D01*
X85025019Y-42215702D01*
X85025017Y-42215701D01*
X84887094Y-42162270D01*
X84826198Y-42138679D01*
X84616610Y-42099500D01*
X84403390Y-42099500D01*
X84193802Y-42138679D01*
X84193799Y-42138679D01*
X84193799Y-42138680D01*
X83994982Y-42215701D01*
X83994980Y-42215702D01*
X83813699Y-42327947D01*
X83656127Y-42471593D01*
X83527632Y-42641746D01*
X83432596Y-42832605D01*
X83432596Y-42832607D01*
X83374244Y-43037689D01*
X83363471Y-43153951D01*
X83337685Y-43218888D01*
X83293130Y-43250804D01*
X83184622Y-43250804D01*
X83186869Y-43249194D01*
X83150497Y-43228331D01*
X83118307Y-43166318D01*
X83116529Y-43153951D01*
X83110969Y-43093951D01*
X83105756Y-43037690D01*
X83047405Y-42832611D01*
X83047403Y-42832606D01*
X83047403Y-42832605D01*
X82952367Y-42641746D01*
X82823872Y-42471593D01*
X82666302Y-42327948D01*
X82485019Y-42215702D01*
X82485017Y-42215701D01*
X82347094Y-42162270D01*
X82286198Y-42138679D01*
X82076610Y-42099500D01*
X81863390Y-42099500D01*
X81653802Y-42138679D01*
X81653799Y-42138679D01*
X81653799Y-42138680D01*
X81454982Y-42215701D01*
X81454980Y-42215702D01*
X81273699Y-42327947D01*
X81116127Y-42471593D01*
X80987634Y-42641744D01*
X80920676Y-42776215D01*
X80873173Y-42827452D01*
X80805510Y-42844873D01*
X80739170Y-42822947D01*
X80697294Y-42773348D01*
X80603600Y-42572422D01*
X80603599Y-42572420D01*
X80468113Y-42378926D01*
X80468108Y-42378920D01*
X80301082Y-42211894D01*
X80107578Y-42076399D01*
X79893492Y-41976570D01*
X79893486Y-41976567D01*
X79680000Y-41919364D01*
X79680000Y-42816988D01*
X79622993Y-42784075D01*
X79495826Y-42750000D01*
X79364174Y-42750000D01*
X79237007Y-42784075D01*
X79180000Y-42816988D01*
X79180000Y-41919364D01*
X79179999Y-41919364D01*
X78966513Y-41976567D01*
X78966507Y-41976570D01*
X78752422Y-42076399D01*
X78752420Y-42076400D01*
X78558926Y-42211886D01*
X78558920Y-42211891D01*
X78391891Y-42378920D01*
X78391886Y-42378926D01*
X78256400Y-42572420D01*
X78256399Y-42572422D01*
X78156570Y-42786507D01*
X78156567Y-42786513D01*
X78099364Y-42999999D01*
X75440499Y-42999999D01*
X75440499Y-42355136D01*
X75440497Y-42355117D01*
X75437586Y-42330012D01*
X75437585Y-42330010D01*
X75437585Y-42330009D01*
X75392206Y-42227235D01*
X75312765Y-42147794D01*
X75292124Y-42138680D01*
X75209992Y-42102415D01*
X75184865Y-42099500D01*
X73395143Y-42099500D01*
X73395117Y-42099502D01*
X73370012Y-42102413D01*
X73370008Y-42102415D01*
X73267235Y-42147793D01*
X73187794Y-42227234D01*
X73142415Y-42330006D01*
X73142415Y-42330008D01*
X73139500Y-42355131D01*
X73139500Y-43093951D01*
X73119815Y-43160990D01*
X73067011Y-43206745D01*
X72997853Y-43216689D01*
X72934297Y-43187664D01*
X72896523Y-43128886D01*
X72892029Y-43105391D01*
X72885756Y-43037689D01*
X72844790Y-42893713D01*
X72827405Y-42832611D01*
X72827403Y-42832606D01*
X72827403Y-42832605D01*
X72732367Y-42641746D01*
X72603872Y-42471593D01*
X72446302Y-42327948D01*
X72265019Y-42215702D01*
X72265017Y-42215701D01*
X72127094Y-42162270D01*
X72066198Y-42138679D01*
X71856610Y-42099500D01*
X71643390Y-42099500D01*
X71433802Y-42138679D01*
X71433799Y-42138679D01*
X71433799Y-42138680D01*
X71234982Y-42215701D01*
X71234980Y-42215702D01*
X71053699Y-42327947D01*
X70896127Y-42471593D01*
X70767632Y-42641746D01*
X70672596Y-42832605D01*
X70672596Y-42832607D01*
X70614244Y-43037689D01*
X70603471Y-43153951D01*
X70577685Y-43218888D01*
X70533130Y-43250804D01*
X70424622Y-43250804D01*
X70426869Y-43249194D01*
X70390497Y-43228331D01*
X70358307Y-43166318D01*
X70356529Y-43153951D01*
X70350969Y-43093951D01*
X70345756Y-43037690D01*
X70287405Y-42832611D01*
X70287403Y-42832606D01*
X70287403Y-42832605D01*
X70192367Y-42641746D01*
X70063872Y-42471593D01*
X69906302Y-42327948D01*
X69725019Y-42215702D01*
X69725017Y-42215701D01*
X69587094Y-42162270D01*
X69526198Y-42138679D01*
X69316610Y-42099500D01*
X69103390Y-42099500D01*
X68893802Y-42138679D01*
X68893799Y-42138679D01*
X68893799Y-42138680D01*
X68694982Y-42215701D01*
X68694980Y-42215702D01*
X68513699Y-42327947D01*
X68356127Y-42471593D01*
X68227634Y-42641744D01*
X68160676Y-42776215D01*
X68113173Y-42827452D01*
X68045510Y-42844873D01*
X67979170Y-42822947D01*
X67937294Y-42773348D01*
X67843600Y-42572422D01*
X67843599Y-42572420D01*
X67708113Y-42378926D01*
X67708108Y-42378920D01*
X67541082Y-42211894D01*
X67347578Y-42076399D01*
X67133492Y-41976570D01*
X67133486Y-41976567D01*
X66920000Y-41919364D01*
X66920000Y-42816988D01*
X66862993Y-42784075D01*
X66735826Y-42750000D01*
X66604174Y-42750000D01*
X66477007Y-42784075D01*
X66420000Y-42816988D01*
X66420000Y-41919364D01*
X66419999Y-41919364D01*
X66206513Y-41976567D01*
X66206507Y-41976570D01*
X65992422Y-42076399D01*
X65992420Y-42076400D01*
X65798926Y-42211886D01*
X65798920Y-42211891D01*
X65631891Y-42378920D01*
X65631886Y-42378926D01*
X65496400Y-42572420D01*
X65496399Y-42572422D01*
X65396570Y-42786507D01*
X65396567Y-42786513D01*
X65339364Y-42999999D01*
X61350500Y-42999999D01*
X61350500Y-42893713D01*
X61317246Y-42683757D01*
X61251557Y-42481588D01*
X61155051Y-42292184D01*
X61155049Y-42292181D01*
X61155048Y-42292179D01*
X61030109Y-42120213D01*
X60879786Y-41969890D01*
X60707820Y-41844951D01*
X60518414Y-41748444D01*
X60518413Y-41748443D01*
X60518412Y-41748443D01*
X60316243Y-41682754D01*
X60316241Y-41682753D01*
X60316240Y-41682753D01*
X60154957Y-41657208D01*
X60106287Y-41649500D01*
X59893713Y-41649500D01*
X59845042Y-41657208D01*
X59683760Y-41682753D01*
X59481585Y-41748444D01*
X59292179Y-41844951D01*
X59120213Y-41969890D01*
X58969890Y-42120213D01*
X58844951Y-42292179D01*
X58748444Y-42481585D01*
X58682753Y-42683760D01*
X58649500Y-42893713D01*
X57001490Y-42893713D01*
X57002274Y-42837729D01*
X57003041Y-42825610D01*
X57039277Y-42504005D01*
X57041606Y-42490299D01*
X57101648Y-42227235D01*
X57113427Y-42175627D01*
X57117272Y-42162279D01*
X57223883Y-41857601D01*
X57229196Y-41844777D01*
X57369243Y-41553965D01*
X57375959Y-41541813D01*
X57547693Y-41268501D01*
X57555723Y-41257183D01*
X57756979Y-41004816D01*
X57766228Y-40994467D01*
X57994467Y-40766228D01*
X58004816Y-40756979D01*
X58257183Y-40555723D01*
X58268501Y-40547693D01*
X58541813Y-40375959D01*
X58553965Y-40369243D01*
X58844777Y-40229196D01*
X58857601Y-40223883D01*
X59162279Y-40117272D01*
X59175627Y-40113427D01*
X59393293Y-40063746D01*
X59490299Y-40041606D01*
X59504005Y-40039277D01*
X59825610Y-40003041D01*
X59837729Y-40002274D01*
X59999144Y-40000011D01*
X60000882Y-40000000D01*
X94999118Y-40000000D01*
X95000855Y-40000011D01*
G37*
%TD.AperFunction*%
%TD*%
M02*
