M48
; DRILL file {KiCad 8.0.3} date 2024-06-13T12:42:08-0500
; FORMAT={-:-/ absolute / metric / decimal}
; #@! TF.CreationDate,2024-06-13T12:42:08-05:00
; #@! TF.GenerationSoftware,Kicad,Pcbnew,8.0.3
; #@! TF.FileFunction,MixedPlating,1,2
FMAT,2
METRIC
; #@! TA.AperFunction,Plated,PTH,ViaDrill
T1C0.400
; #@! TA.AperFunction,Plated,PTH,ComponentDrill
T2C0.550
; #@! TA.AperFunction,Plated,PTH,ComponentDrill
T3C0.850
; #@! TA.AperFunction,Plated,PTH,ComponentDrill
T4C1.000
; #@! TA.AperFunction,NonPlated,NPTH,ComponentDrill
T5C0.800
; #@! TA.AperFunction,NonPlated,NPTH,ComponentDrill
T6C0.900
; #@! TA.AperFunction,NonPlated,NPTH,ComponentDrill
T7C2.200
%
G90
G05
T1
X62.75Y-48.0
X63.75Y-60.25
X65.75Y-54.75
X66.25Y-63.0
X66.25Y-64.75
X68.419Y-57.608
X68.75Y-55.75
X70.25Y-53.75
X72.49Y-66.75
X72.5Y-58.25
X73.0Y-54.75
X73.625Y-63.375
X74.0Y-66.75
X75.76Y-67.0
X77.26Y-67.0
X77.5Y-60.25
X82.25Y-55.5
X85.5Y-59.5
X85.5Y-60.5
X88.75Y-61.75
X88.75Y-62.75
X89.75Y-54.0
X91.5Y-64.0
X93.5Y-64.75
T4
X66.67Y-43.25
X69.17Y-72.75
X69.21Y-43.25
X71.71Y-72.75
X71.75Y-43.25
X74.25Y-72.75
X74.29Y-43.25
X76.79Y-72.75
X79.43Y-43.25
X81.97Y-43.25
X84.51Y-43.25
X87.05Y-43.25
T5
X92.945Y-52.755
X92.945Y-57.755
T6
X59.145Y-48.75
X59.145Y-51.75
T7
X60.0Y-43.0
X60.0Y-73.0
X95.0Y-43.0
X95.0Y-73.0
T2
G00X95.37Y-51.38
M15
G01X96.02Y-51.38
M16
G05
G00X95.37Y-59.13
M15
G01X96.02Y-59.13
M16
G05
T3
G00X91.62Y-51.53
M15
G01X92.17Y-51.53
M16
G05
G00X91.62Y-58.98
M15
G01X92.17Y-58.98
M16
G05
M30
